<?xml version="1.0" encoding="UTF-8"?>
<svg xmlns="http://www.w3.org/2000/svg" xmlns:xlink="http://www.w3.org/1999/xlink" width="184px" height="195px" viewBox="0 0 184 195" version="1.1">
<defs>
<filter id="alpha" filterUnits="objectBoundingBox" x="0%" y="0%" width="100%" height="100%">
  <feColorMatrix type="matrix" in="SourceGraphic" values="0 0 0 0 1 0 0 0 0 1 0 0 0 0 1 0 0 0 1 0"/>
</filter>
<mask id="mask0">
  <g filter="url(#alpha)">
<rect x="0" y="0" width="184" height="195" style="fill:rgb(0%,0%,0%);fill-opacity:0.101961;stroke:none;"/>
  </g>
</mask>
<clipPath id="clip1">
  <rect x="0" y="0" width="185" height="195"/>
</clipPath>
<g id="surface5" clip-path="url(#clip1)">
<path style=" stroke:none;fill-rule:nonzero;fill:rgb(0%,0%,0%);fill-opacity:1;" d="M 132.671875 94.738281 C 132.671875 81.96875 122.90625 71.3125 110.167969 70.183594 C 110.886719 70.121094 111.613281 70.085938 112.347656 70.085938 C 125.976562 70.09375 137.019531 81.128906 137.019531 94.738281 C 137.019531 108.347656 125.976562 119.382812 112.347656 119.390625 C 111.613281 119.390625 110.890625 119.359375 110.171875 119.296875 C 122.90625 118.164062 132.671875 107.507812 132.671875 94.738281 Z M 132.671875 94.738281 "/>
</g>
<mask id="mask1">
  <g filter="url(#alpha)">
<rect x="0" y="0" width="184" height="195" style="fill:rgb(0%,0%,0%);fill-opacity:0.25098;stroke:none;"/>
  </g>
</mask>
<clipPath id="clip2">
  <rect x="0" y="0" width="185" height="195"/>
</clipPath>
<g id="surface8" clip-path="url(#clip2)">
<path style=" stroke:none;fill-rule:nonzero;fill:rgb(0%,0%,0%);fill-opacity:1;" d="M 39.035156 101.15625 L 36.875 126.96875 L 39.601562 112.980469 Z M 39.035156 101.15625 "/>
</g>
</defs>
<g id="surface1">
<path style=" stroke:none;fill-rule:nonzero;fill:rgb(24.705882%,23.921569%,33.72549%);fill-opacity:1;" d="M 183.933594 43.238281 L 182.933594 43.238281 L 182.933594 15.851562 C 182.933594 7.097656 175.828125 0 167.0625 0 L 108.960938 0 C 100.195312 0 93.089844 7.097656 93.089844 15.851562 L 93.089844 166.09375 C 93.089844 174.847656 100.195312 181.945312 108.960938 181.945312 L 167.0625 181.945312 C 175.828125 181.945312 182.933594 174.847656 182.933594 166.09375 L 182.933594 62.730469 L 183.933594 62.730469 Z M 183.933594 43.238281 "/>
<path style=" stroke:none;fill-rule:nonzero;fill:rgb(100%,100%,100%);fill-opacity:1;" d="M 167.703125 4.125 L 160.117188 4.125 C 160.824219 5.859375 160.621094 7.832031 159.578125 9.382812 C 158.53125 10.9375 156.777344 11.871094 154.902344 11.871094 L 121.617188 11.871094 C 119.742188 11.871094 117.992188 10.9375 116.945312 9.382812 C 115.898438 7.832031 115.695312 5.859375 116.40625 4.125 L 109.320312 4.125 C 102.773438 4.125 97.46875 9.421875 97.46875 15.960938 L 97.46875 165.984375 C 97.46875 172.519531 102.773438 177.820312 109.320312 177.820312 L 167.703125 177.820312 C 174.246094 177.820312 179.554688 172.519531 179.554688 165.984375 L 179.554688 15.960938 C 179.554688 9.421875 174.246094 4.125 167.703125 4.125 Z M 167.703125 4.125 "/>
<path style=" stroke:none;fill-rule:nonzero;fill:rgb(90.196078%,90.196078%,90.196078%);fill-opacity:1;" d="M 141.574219 167.195312 C 130.941406 167.199219 121.757812 159.769531 119.558594 149.382812 C 117.355469 138.996094 122.738281 128.484375 132.460938 124.1875 C 142.179688 119.890625 153.589844 122.976562 159.808594 131.589844 C 166.027344 140.199219 165.363281 151.984375 158.210938 159.839844 L 162.90625 165.101562 L 160.5625 166.09375 C 156.9375 167.628906 153.386719 166.132812 151.394531 164.941406 C 148.335938 166.421875 144.976562 167.195312 141.574219 167.195312 Z M 141.574219 125.957031 C 133.714844 125.960938 126.683594 130.839844 123.941406 138.195312 C 121.199219 145.554688 123.324219 153.835938 129.269531 158.972656 C 135.214844 164.105469 143.730469 165.011719 150.625 161.238281 L 151.625 160.6875 L 152.558594 161.351562 C 153.625 162.125 154.835938 162.679688 156.121094 162.976562 L 153.164062 159.667969 L 154.460938 158.453125 C 158.265625 154.914062 160.417969 149.945312 160.398438 144.753906 C 160.386719 134.378906 151.964844 125.96875 141.574219 125.957031 Z M 141.574219 125.957031 "/>
<path style=" stroke:none;fill-rule:nonzero;fill:rgb(100%,100%,100%);fill-opacity:1;" d="M 162.222656 144.753906 C 162.21875 135.46875 155.996094 127.332031 147.03125 124.882812 C 138.0625 122.433594 128.558594 126.273438 123.824219 134.261719 C 119.085938 142.253906 120.285156 152.417969 126.75 159.09375 C 133.214844 165.765625 143.347656 167.296875 151.503906 162.835938 C 152.929688 163.851562 156.410156 165.871094 159.851562 164.414062 L 155.710938 159.78125 C 159.871094 155.886719 162.226562 150.445312 162.222656 144.753906 Z M 162.222656 144.753906 "/>
<path style=" stroke:none;fill-rule:nonzero;fill:rgb(42.352941%,38.823529%,100%);fill-opacity:1;" d="M 130.941406 140.539062 L 145.695312 140.539062 L 145.695312 141.90625 L 130.941406 141.90625 Z M 130.941406 140.539062 "/>
<path style=" stroke:none;fill-rule:nonzero;fill:rgb(90.196078%,90.196078%,90.196078%);fill-opacity:1;" d="M 130.941406 145.269531 L 156.65625 145.269531 L 156.65625 146.640625 L 130.941406 146.640625 Z M 130.941406 145.269531 "/>
<path style=" stroke:none;fill-rule:nonzero;fill:rgb(90.196078%,90.196078%,90.196078%);fill-opacity:1;" d="M 130.941406 150.003906 L 156.628906 150.003906 L 156.628906 151.371094 L 130.941406 151.371094 Z M 130.941406 150.003906 "/>
<path style=" stroke:none;fill-rule:nonzero;fill:rgb(90.196078%,90.196078%,90.196078%);fill-opacity:1;" d="M 141.574219 67.445312 C 130.941406 67.449219 121.757812 60.019531 119.558594 49.632812 C 117.355469 39.246094 122.738281 28.734375 132.460938 24.4375 C 142.179688 20.140625 153.589844 23.226562 159.808594 31.839844 C 166.027344 40.449219 165.363281 52.234375 158.210938 60.089844 L 162.90625 65.351562 L 160.5625 66.34375 C 156.9375 67.878906 153.386719 66.382812 151.394531 65.191406 C 148.335938 66.671875 144.976562 67.445312 141.574219 67.445312 Z M 141.574219 26.207031 C 133.714844 26.210938 126.683594 31.089844 123.941406 38.445312 C 121.199219 45.804688 123.324219 54.085938 129.269531 59.222656 C 135.214844 64.355469 143.730469 65.261719 150.625 61.488281 L 151.625 60.9375 L 152.558594 61.601562 C 153.625 62.375 154.835938 62.929688 156.121094 63.226562 L 153.164062 59.917969 L 154.460938 58.703125 C 158.265625 55.164062 160.417969 50.195312 160.398438 45.003906 C 160.386719 34.628906 151.964844 26.21875 141.574219 26.207031 Z M 141.574219 26.207031 "/>
<path style=" stroke:none;fill-rule:nonzero;fill:rgb(100%,100%,100%);fill-opacity:1;" d="M 162.222656 45.003906 C 162.21875 35.71875 155.996094 27.582031 147.03125 25.132812 C 138.0625 22.683594 128.558594 26.523438 123.824219 34.511719 C 119.085938 42.503906 120.285156 52.667969 126.75 59.34375 C 133.214844 66.015625 143.347656 67.546875 151.503906 63.085938 C 152.929688 64.101562 156.410156 66.121094 159.851562 64.664062 L 155.710938 60.03125 C 159.871094 56.136719 162.226562 50.695312 162.222656 45.003906 Z M 162.222656 45.003906 "/>
<path style=" stroke:none;fill-rule:nonzero;fill:rgb(42.352941%,38.823529%,100%);fill-opacity:1;" d="M 130.941406 40.789062 L 145.695312 40.789062 L 145.695312 42.15625 L 130.941406 42.15625 Z M 130.941406 40.789062 "/>
<path style=" stroke:none;fill-rule:nonzero;fill:rgb(90.196078%,90.196078%,90.196078%);fill-opacity:1;" d="M 130.941406 45.519531 L 156.65625 45.519531 L 156.65625 46.890625 L 130.941406 46.890625 Z M 130.941406 45.519531 "/>
<path style=" stroke:none;fill-rule:nonzero;fill:rgb(90.196078%,90.196078%,90.196078%);fill-opacity:1;" d="M 130.941406 50.253906 L 156.628906 50.253906 L 156.628906 51.621094 L 130.941406 51.621094 Z M 130.941406 50.253906 "/>
<path style=" stroke:none;fill-rule:nonzero;fill:rgb(90.196078%,90.196078%,90.196078%);fill-opacity:1;" d="M 173.425781 66.113281 C 173.425781 67.90625 171.96875 69.363281 170.171875 69.363281 C 168.375 69.363281 166.917969 67.90625 166.917969 66.113281 C 166.917969 64.316406 168.375 62.863281 170.171875 62.863281 C 171.96875 62.863281 173.425781 64.316406 173.425781 66.113281 Z M 173.425781 66.113281 "/>
<path style=" stroke:none;fill-rule:nonzero;fill:rgb(90.196078%,90.196078%,90.196078%);fill-opacity:1;" d="M 173.425781 165.863281 C 173.425781 167.65625 171.96875 169.113281 170.171875 169.113281 C 168.375 169.113281 166.917969 167.65625 166.917969 165.863281 C 166.917969 164.066406 168.375 162.613281 170.171875 162.613281 C 171.96875 162.613281 173.425781 164.066406 173.425781 165.863281 Z M 173.425781 165.863281 "/>
<path style=" stroke:none;fill-rule:nonzero;fill:rgb(42.352941%,38.823529%,100%);fill-opacity:1;" d="M 98.300781 119.003906 C 95.921875 120.429688 91.675781 122.214844 87.339844 120.378906 L 84.539062 119.191406 L 90.15625 112.902344 C 80.867188 102.675781 80.882812 87.078125 90.191406 76.867188 C 99.5 66.660156 115.050781 65.191406 126.113281 73.472656 C 137.175781 81.75 140.125 97.070312 132.925781 108.859375 C 125.726562 120.644531 110.738281 125.035156 98.300781 119.003906 Z M 98.300781 119.003906 "/>
<use xlink:href="#surface5" mask="url(#mask0)"/>
<path style=" stroke:none;fill-rule:nonzero;fill:rgb(100%,100%,100%);fill-opacity:1;" d="M 95.871094 89.824219 L 113.507812 89.824219 L 113.507812 91.460938 L 95.871094 91.460938 Z M 95.871094 89.824219 "/>
<path style=" stroke:none;fill-rule:nonzero;fill:rgb(100%,100%,100%);fill-opacity:1;" d="M 95.871094 95.484375 L 126.613281 95.484375 L 126.613281 97.117188 L 95.871094 97.117188 Z M 95.871094 95.484375 "/>
<path style=" stroke:none;fill-rule:nonzero;fill:rgb(100%,100%,100%);fill-opacity:1;" d="M 95.871094 101.140625 L 126.582031 101.140625 L 126.582031 102.777344 L 95.871094 102.777344 Z M 95.871094 101.140625 "/>
<path style=" stroke:none;fill-rule:nonzero;fill:rgb(80%,80%,80%);fill-opacity:1;" d="M 0.25 194.945312 L 95.628906 194.945312 C 95.769531 194.945312 95.878906 194.835938 95.878906 194.695312 C 95.878906 194.558594 95.769531 194.445312 95.628906 194.445312 L 0.25 194.445312 C 0.113281 194.445312 0 194.558594 0 194.695312 C 0 194.835938 0.113281 194.945312 0.25 194.945312 Z M 0.25 194.945312 "/>
<path style=" stroke:none;fill-rule:nonzero;fill:rgb(90.196078%,90.196078%,90.196078%);fill-opacity:1;" d="M 46.007812 87.378906 L 46.386719 85.496094 C 46.386719 85.496094 51.929688 83.617188 52.550781 87.378906 Z M 46.007812 87.378906 "/>
<path style=" stroke:none;fill-rule:nonzero;fill:rgb(62.352941%,38.039216%,41.568627%);fill-opacity:1;" d="M 56.652344 191.023438 L 60.285156 191.023438 L 62.015625 177.023438 L 56.648438 177.023438 Z M 56.652344 191.023438 "/>
<path style=" stroke:none;fill-rule:nonzero;fill:rgb(18.431373%,18.039216%,25.490196%);fill-opacity:1;" d="M 55.722656 189.839844 L 62.882812 189.839844 C 65.402344 189.839844 67.445312 191.878906 67.445312 194.394531 L 67.445312 194.542969 L 55.722656 194.542969 Z M 55.722656 189.839844 "/>
<path style=" stroke:none;fill-rule:nonzero;fill:rgb(62.352941%,38.039216%,41.568627%);fill-opacity:1;" d="M 39.125 191.023438 L 42.761719 191.023438 L 44.492188 177.023438 L 39.125 177.023438 Z M 39.125 191.023438 "/>
<path style=" stroke:none;fill-rule:nonzero;fill:rgb(18.431373%,18.039216%,25.490196%);fill-opacity:1;" d="M 38.199219 189.839844 L 45.359375 189.839844 C 47.878906 189.839844 49.921875 191.878906 49.921875 194.394531 L 49.921875 194.542969 L 38.199219 194.542969 Z M 38.199219 189.839844 "/>
<path style=" stroke:none;fill-rule:nonzero;fill:rgb(18.431373%,18.039216%,25.490196%);fill-opacity:1;" d="M 40.730469 95.285156 L 36.585938 94.910156 L 33.945312 107.332031 L 34.324219 118.625 L 38.46875 133.683594 L 44.125 130.296875 L 41.109375 114.863281 Z M 40.730469 95.285156 "/>
<path style=" stroke:none;fill-rule:nonzero;fill:rgb(18.431373%,18.039216%,25.490196%);fill-opacity:1;" d="M 38.105469 132.367188 L 39.035156 140.273438 L 39.90625 158.71875 L 37.902344 186.210938 L 45.066406 185.828125 L 48.578125 157.214844 L 50.722656 144.039062 L 53.738281 159.097656 L 55.621094 187.332031 L 62.972656 186.742188 L 62.972656 158.996094 L 63.160156 138.769531 L 60.523438 130.863281 Z M 38.105469 132.367188 "/>
<path style=" stroke:none;fill-rule:nonzero;fill:rgb(18.431373%,18.039216%,25.490196%);fill-opacity:1;" d="M 53.546875 87.757812 C 53.546875 87.757812 50.910156 83.992188 46.007812 86.628906 L 43.746094 89.640625 L 36.585938 94.910156 L 38.09375 112.601562 L 36.207031 134.816406 L 62.972656 134.4375 L 58.449219 112.226562 L 58.449219 88.507812 Z M 53.546875 87.757812 "/>
<use xlink:href="#surface8" mask="url(#mask1)"/>
<path style=" stroke:none;fill-rule:nonzero;fill:rgb(62.352941%,38.039216%,41.568627%);fill-opacity:1;" d="M 84.027344 122.796875 C 83.25 123.0625 82.390625 122.96875 81.6875 122.542969 C 80.984375 122.113281 80.507812 121.398438 80.382812 120.585938 L 74.214844 119.0625 L 74.226562 115.09375 L 82.910156 117.367188 C 84.320312 117.246094 85.597656 118.199219 85.882812 119.585938 C 86.167969 120.972656 85.371094 122.351562 84.027344 122.796875 Z M 84.027344 122.796875 "/>
<path style=" stroke:none;fill-rule:nonzero;fill:rgb(90.196078%,90.196078%,90.196078%);fill-opacity:1;" d="M 76.539062 120.980469 L 77.578125 115.046875 L 80.175781 115.5 L 79.140625 121.433594 Z M 76.539062 120.980469 "/>
<path style=" stroke:none;fill-rule:nonzero;fill:rgb(62.352941%,38.039216%,41.568627%);fill-opacity:1;" d="M 55.996094 72.222656 C 58 75.886719 56.652344 80.480469 52.984375 82.480469 C 49.316406 84.484375 44.714844 83.136719 42.710938 79.472656 C 40.707031 75.8125 42.054688 71.21875 45.722656 69.214844 C 49.390625 67.210938 53.988281 68.558594 55.996094 72.222656 Z M 55.996094 72.222656 "/>
<path style=" stroke:none;fill-rule:nonzero;fill:rgb(18.431373%,18.039216%,25.490196%);fill-opacity:1;" d="M 49.917969 82.515625 C 46.082031 83.4375 42.171875 81.304688 40.875 77.582031 C 39.578125 73.859375 41.316406 69.761719 44.894531 68.105469 C 46.226562 67.511719 47.679688 67.25 49.132812 67.34375 C 51.398438 67.464844 53.597656 68.296875 55.867188 68.238281 L 56.195312 68.765625 L 57.433594 68.464844 L 57.695312 69.445312 L 58.023438 69.433594 C 58.605469 70.519531 57.667969 72.070312 56.433594 72.058594 C 55.945312 72.050781 55.484375 71.847656 55.007812 71.746094 C 54.53125 71.644531 53.96875 71.671875 53.640625 72.03125 C 53.210938 72.5 53.398438 73.226562 53.488281 73.855469 C 53.578125 74.480469 53.355469 75.328125 52.71875 75.347656 C 52.394531 75.359375 52.089844 75.125 51.769531 75.1875 C 51.398438 75.257812 51.210938 75.703125 51.265625 76.078125 C 51.359375 76.445312 51.507812 76.792969 51.710938 77.113281 C 52.628906 78.945312 51.851562 81.433594 50.054688 82.421875 "/>
<path style=" stroke:none;fill-rule:nonzero;fill:rgb(18.431373%,18.039216%,25.490196%);fill-opacity:1;" d="M 56.648438 89.964844 L 58.449219 88.507812 C 58.449219 88.507812 62.082031 88.257812 62.015625 92.101562 L 67.824219 110.253906 L 78.972656 114.195312 L 77.46875 121.945312 L 61.699219 115.945312 L 53.6875 102.6875 Z M 56.648438 89.964844 "/>
</g>
</svg>
