<?xml version="1.0" encoding="UTF-8"?>
<svg xmlns="http://www.w3.org/2000/svg" xmlns:xlink="http://www.w3.org/1999/xlink" width="468px" height="360px" viewBox="0 0 468 360" version="1.1">
<defs>
<filter id="alpha" filterUnits="objectBoundingBox" x="0%" y="0%" width="100%" height="100%">
  <feColorMatrix type="matrix" in="SourceGraphic" values="0 0 0 0 1 0 0 0 0 1 0 0 0 0 1 0 0 0 1 0"/>
</filter>
<mask id="mask0">
  <g filter="url(#alpha)">
<rect x="0" y="0" width="468" height="360" style="fill:rgb(0%,0%,0%);fill-opacity:0.2;stroke:none;"/>
  </g>
</mask>
<clipPath id="clip1">
  <rect x="0" y="0" width="468" height="360"/>
</clipPath>
<g id="surface5" clip-path="url(#clip1)">
<path style=" stroke:none;fill-rule:nonzero;fill:rgb(0%,0%,0%);fill-opacity:1;" d="M 415.9375 30.261719 C 403.589844 9.296875 377.785156 -2.566406 351.371094 0.570312 C 382.859375 4.25 406.417969 28.054688 406.464844 56.25 C 406.515625 84.441406 383.042969 108.3125 351.566406 112.078125 C 375.007812 114.8125 398.210938 105.730469 411.746094 88.527344 C 425.285156 71.320312 426.898438 48.855469 415.9375 30.261719 Z M 415.9375 30.261719 "/>
</g>
</defs>
<g id="surface1">
<path style=" stroke:none;fill-rule:nonzero;fill:rgb(94.901961%,94.901961%,94.901961%);fill-opacity:1;" d="M 195.59375 286.386719 C 195.652344 292.710938 201.46875 297.800781 208.59375 297.761719 L 430.097656 296.351562 C 437.222656 296.304688 442.957031 291.136719 442.90625 284.8125 C 442.855469 278.488281 437.039062 273.394531 429.914062 273.4375 L 208.410156 274.847656 C 201.285156 274.898438 195.550781 280.058594 195.59375 286.386719 Z M 195.59375 286.386719 "/>
<path style=" stroke:none;fill-rule:nonzero;fill:rgb(80%,80%,80%);fill-opacity:1;" d="M 222.164062 283.644531 C 222.164062 283.246094 222.53125 282.917969 222.980469 282.917969 L 280.195312 282.734375 C 280.644531 282.734375 281.015625 283.058594 281.015625 283.457031 C 281.015625 283.859375 280.652344 284.1875 280.199219 284.1875 L 222.988281 284.371094 C 222.535156 284.371094 222.167969 284.046875 222.164062 283.644531 Z M 222.164062 283.644531 "/>
<path style=" stroke:none;fill-rule:nonzero;fill:rgb(80%,80%,80%);fill-opacity:1;" d="M 222.230469 290.3125 C 222.230469 289.910156 222.59375 289.582031 223.046875 289.582031 L 370.351562 288.804688 C 370.804688 288.804688 371.171875 289.128906 371.175781 289.527344 C 371.175781 289.929688 370.8125 290.257812 370.359375 290.261719 L 370.355469 290.261719 L 223.054688 291.035156 C 222.601562 291.035156 222.234375 290.710938 222.230469 290.3125 Z M 222.230469 290.3125 "/>
<path style=" stroke:none;fill-rule:nonzero;fill:rgb(94.901961%,94.901961%,94.901961%);fill-opacity:1;" d="M 195.59375 242.773438 C 195.652344 249.097656 201.46875 254.1875 208.59375 254.148438 L 430.097656 252.738281 C 437.222656 252.691406 442.957031 247.523438 442.90625 241.199219 C 442.855469 234.871094 437.039062 229.78125 429.914062 229.824219 L 208.410156 231.230469 C 201.285156 231.28125 195.550781 236.445312 195.59375 242.773438 Z M 195.59375 242.773438 "/>
<path style=" stroke:none;fill-rule:nonzero;fill:rgb(80%,80%,80%);fill-opacity:1;" d="M 219.734375 246.699219 C 219.730469 246.296875 220.097656 245.96875 220.550781 245.96875 L 367.851562 245.191406 C 368.304688 245.191406 368.671875 245.515625 368.675781 245.917969 C 368.675781 246.316406 368.3125 246.644531 367.859375 246.644531 L 220.554688 247.421875 C 220.101562 247.421875 219.734375 247.097656 219.734375 246.699219 Z M 219.734375 246.699219 "/>
<path style=" stroke:none;fill-rule:nonzero;fill:rgb(80%,80%,80%);fill-opacity:1;" d="M 219.734375 239.304688 C 219.730469 238.902344 220.097656 238.578125 220.550781 238.574219 L 367.851562 237.800781 C 368.304688 237.796875 368.671875 238.121094 368.675781 238.523438 C 368.675781 238.925781 368.3125 239.253906 367.859375 239.253906 L 220.554688 240.03125 C 220.101562 240.03125 219.734375 239.707031 219.734375 239.304688 Z M 219.734375 239.304688 "/>
<path style=" stroke:none;fill-rule:nonzero;fill:rgb(94.901961%,94.901961%,94.901961%);fill-opacity:1;" d="M 260.421875 336.941406 L 38.917969 335.53125 C 31.792969 335.488281 25.976562 340.582031 25.925781 346.90625 C 25.875 353.234375 31.609375 358.398438 38.734375 358.445312 L 260.238281 359.855469 C 267.363281 359.898438 273.179688 354.804688 273.230469 348.480469 C 273.28125 342.15625 267.546875 336.988281 260.421875 336.941406 Z M 260.421875 336.941406 "/>
<path style=" stroke:none;fill-rule:nonzero;fill:rgb(80%,80%,80%);fill-opacity:1;" d="M 108.441406 346.464844 L 51.230469 346.28125 C 50.777344 346.28125 50.414062 345.953125 50.414062 345.554688 C 50.417969 345.152344 50.785156 344.828125 51.238281 344.828125 L 108.449219 345.011719 C 108.742188 345.011719 109.011719 345.148438 109.160156 345.375 C 109.304688 345.601562 109.304688 345.878906 109.15625 346.105469 C 109.007812 346.328125 108.734375 346.464844 108.441406 346.464844 Z M 108.441406 346.464844 "/>
<path style=" stroke:none;fill-rule:nonzero;fill:rgb(80%,80%,80%);fill-opacity:1;" d="M 199.144531 353.128906 L 51.84375 352.355469 C 51.390625 352.351562 51.023438 352.027344 51.027344 351.625 C 51.027344 351.222656 51.394531 350.898438 51.847656 350.902344 L 199.152344 351.675781 C 199.605469 351.675781 199.96875 352.003906 199.96875 352.40625 C 199.964844 352.808594 199.597656 353.132812 199.144531 353.128906 Z M 199.144531 353.128906 "/>
<path style=" stroke:none;fill-rule:nonzero;fill:rgb(94.901961%,94.901961%,94.901961%);fill-opacity:1;" d="M 468 241.84375 C 468 244.703125 465.390625 247.019531 462.171875 247.019531 C 458.953125 247.019531 456.339844 244.703125 456.339844 241.84375 C 456.339844 238.988281 458.953125 236.671875 462.171875 236.671875 C 465.390625 236.671875 468 238.988281 468 241.84375 Z M 468 241.84375 "/>
<path style=" stroke:none;fill-rule:nonzero;fill:rgb(94.901961%,94.901961%,94.901961%);fill-opacity:1;" d="M 468 285.460938 C 468 288.316406 465.390625 290.632812 462.171875 290.632812 C 458.953125 290.632812 456.339844 288.316406 456.339844 285.460938 C 456.339844 282.601562 458.953125 280.285156 462.171875 280.285156 C 465.390625 280.285156 468 282.601562 468 285.460938 Z M 468 285.460938 "/>
<path style=" stroke:none;fill-rule:nonzero;fill:rgb(42.352941%,38.823529%,100%);fill-opacity:1;" d="M 200.464844 318.21875 L 40.207031 339.53125 C 34.714844 340.265625 29.59375 336.90625 28.769531 332.027344 C 27.945312 327.152344 31.734375 322.609375 37.226562 321.882812 L 197.484375 300.570312 C 202.976562 299.835938 208.097656 303.195312 208.921875 308.074219 C 209.746094 312.949219 205.957031 317.492188 200.464844 318.21875 Z M 200.464844 318.21875 "/>
<path style=" stroke:none;fill-rule:nonzero;fill:rgb(100%,100%,100%);fill-opacity:1;" d="M 88.960938 323.308594 L 47.589844 328.945312 C 47.265625 328.988281 46.957031 328.789062 46.90625 328.5 C 46.859375 328.210938 47.082031 327.9375 47.410156 327.894531 L 88.777344 322.257812 C 89.105469 322.214844 89.410156 322.414062 89.460938 322.703125 C 89.511719 322.992188 89.289062 323.265625 88.960938 323.308594 Z M 88.960938 323.308594 "/>
<path style=" stroke:none;fill-rule:nonzero;fill:rgb(100%,100%,100%);fill-opacity:1;" d="M 155.363281 318.984375 L 48.808594 333.273438 C 48.480469 333.316406 48.175781 333.117188 48.125 332.828125 C 48.074219 332.535156 48.300781 332.265625 48.628906 332.21875 L 155.179688 317.933594 C 155.394531 317.902344 155.605469 317.976562 155.742188 318.125 C 155.875 318.273438 155.910156 318.472656 155.832031 318.652344 C 155.753906 318.828125 155.574219 318.953125 155.363281 318.984375 Z M 155.363281 318.984375 "/>
<path style=" stroke:none;fill-rule:nonzero;fill:rgb(62.745098%,38.039216%,41.568627%);fill-opacity:1;" d="M 163.234375 307.492188 C 161.976562 307.429688 160.816406 306.878906 160.054688 305.984375 C 159.296875 305.09375 159.015625 303.949219 159.289062 302.859375 L 141.871094 291.785156 L 144.136719 286.753906 L 164.714844 300.042969 C 166.796875 300.597656 168.082031 302.449219 167.703125 304.351562 C 167.328125 306.253906 165.40625 307.601562 163.234375 307.492188 Z M 163.234375 307.492188 "/>
<path style=" stroke:none;fill-rule:nonzero;fill:rgb(24.705882%,23.921569%,33.72549%);fill-opacity:1;" d="M 116.441406 245.578125 L 105.972656 248.980469 C 104.039062 249.609375 103.046875 251.507812 103.753906 253.226562 C 103.792969 253.324219 103.839844 253.421875 103.894531 253.519531 L 118.164062 279.945312 L 152.546875 301.945312 L 157.816406 294.492188 L 131.773438 273.4375 Z M 116.441406 245.578125 "/>
<path style=" stroke:none;fill-rule:nonzero;fill:rgb(62.745098%,38.039216%,41.568627%);fill-opacity:1;" d="M 112.136719 300.230469 C 100.210938 299.246094 88.523438 296.800781 76.578125 295.980469 L 81.371094 285.148438 L 105.875 288.386719 Z M 112.136719 300.230469 "/>
<path style=" stroke:none;fill-rule:nonzero;fill:rgb(18.431373%,18.039216%,25.490196%);fill-opacity:1;" d="M 71.667969 302.777344 L 71.566406 303.589844 L 70.710938 310.105469 L 69.714844 310.160156 L 69.65625 318.320312 C 70.304688 319.984375 69.582031 321.820312 67.910156 322.765625 C 67.773438 322.84375 67.632812 322.910156 67.488281 322.972656 C 66.882812 318.734375 67.066406 314.441406 68.03125 310.257812 C 68.417969 308.703125 68.992188 307.1875 69.738281 305.734375 C 70.113281 305.019531 70.539062 304.324219 71.015625 303.65625 C 71.21875 303.355469 71.4375 303.066406 71.667969 302.777344 Z M 71.667969 302.777344 "/>
<path style=" stroke:none;fill-rule:nonzero;fill:rgb(42.352941%,38.823529%,100%);fill-opacity:1;" d="M 71.855469 301.371094 L 71.667969 302.773438 L 71.667969 302.777344 L 71.566406 303.589844 C 71.296875 303.621094 71.109375 303.644531 71.015625 303.65625 C 70.996094 303.65625 70.972656 303.660156 70.949219 303.660156 Z M 71.855469 301.371094 "/>
<path style=" stroke:none;fill-rule:nonzero;fill:rgb(24.705882%,23.921569%,33.72549%);fill-opacity:1;" d="M 115.230469 274.515625 L 113.171875 285.148438 C 113.171875 285.148438 118.175781 295.152344 114.730469 297.644531 C 113.878906 298.328125 113.449219 299.332031 113.585938 300.34375 C 113.101562 300.308594 112.617188 300.269531 112.136719 300.230469 C 100.210938 299.246094 88.523438 296.804688 76.578125 295.980469 C 75.730469 295.921875 74.890625 295.867188 74.042969 295.828125 L 77.722656 286.539062 L 75.238281 278.28125 L 72.660156 269.714844 L 72.105469 255.613281 C 72.09375 255.34375 72.097656 255.078125 72.113281 254.8125 C 72.113281 254.671875 72.121094 254.535156 72.132812 254.394531 C 72.402344 250.789062 74.5 247.484375 77.832031 245.40625 C 77.839844 245.40625 77.84375 245.40625 77.847656 245.402344 C 78.40625 245.050781 78.996094 244.742188 79.613281 244.472656 C 80.273438 244.179688 80.960938 243.941406 81.664062 243.753906 L 82.371094 243.5625 L 86.199219 238.070312 L 90.632812 237.65625 L 92.277344 237.507812 L 102.992188 236.515625 L 105.300781 239.175781 L 105.722656 239.664062 L 107.347656 241.535156 L 112.417969 243.929688 C 113.523438 244.453125 114.539062 245.121094 115.421875 245.910156 C 117.492188 247.75 118.777344 250.171875 119.058594 252.761719 C 119.125 253.359375 119.136719 253.957031 119.09375 254.558594 Z M 115.230469 274.515625 "/>
<path style=" stroke:none;fill-rule:nonzero;fill:rgb(18.431373%,18.039216%,25.490196%);fill-opacity:1;" d="M 63.070312 226.636719 C 62.960938 230.839844 64.730469 234.910156 67.273438 238.484375 C 68.121094 236.40625 69.3125 234.453125 70.800781 232.6875 C 70.089844 236.601562 70.847656 240.621094 72.964844 244.113281 C 73.039062 244.160156 73.117188 244.207031 73.195312 244.246094 C 75.253906 245.433594 77.816406 245.710938 80.136719 245 C 75.484375 240.328125 74.9375 233.46875 78.800781 228.257812 C 79.898438 226.847656 81.320312 225.601562 82 223.996094 C 83.074219 221.433594 82.042969 218.613281 81.390625 215.945312 C 80.78125 213.457031 80.675781 210.5 82.550781 208.679688 C 82.144531 208.164062 81.453125 207.878906 80.742188 207.941406 C 79.59375 208.199219 78.652344 208.925781 78.207031 209.898438 C 77.773438 210.863281 77.222656 211.777344 76.566406 212.636719 C 75.179688 214.121094 72.820312 214.472656 70.832031 215.257812 C 66.019531 217.164062 63.1875 221.960938 63.070312 226.636719 Z M 63.070312 226.636719 "/>
<path style=" stroke:none;fill-rule:nonzero;fill:rgb(18.431373%,18.039216%,25.490196%);fill-opacity:1;" d="M 103.605469 224.234375 C 103.328125 223.378906 105.226562 228.605469 104.308594 228.699219 C 100.140625 229.121094 94.417969 231.332031 91.515625 232.363281 C 91.386719 232.351562 91.253906 232.335938 91.128906 232.320312 C 90.816406 232.289062 90.511719 232.246094 90.210938 232.195312 C 83.453125 231.058594 80.851562 221.84375 80.851562 221.757812 C 80.851562 221.34375 81.972656 209.960938 83.738281 209.792969 C 84.203125 209.75 84.667969 209.726562 85.132812 209.726562 L 89.515625 209.726562 C 90.421875 209.550781 91.339844 209.433594 92.265625 209.371094 L 92.269531 209.371094 C 101.089844 208.777344 108.042969 213.546875 107.390625 219.351562 C 107.386719 219.359375 107.378906 219.363281 107.375 219.371094 C 107.1875 219.621094 107.023438 219.855469 106.875 220.082031 C 106.734375 220.292969 106.613281 220.496094 106.511719 220.6875 C 105.707031 222.171875 107.773438 224.035156 106.402344 224.382812 C 104.582031 224.847656 111.195312 240.066406 103.984375 240.066406 C 107.492188 240.953125 104.363281 226.589844 103.605469 224.234375 Z M 103.605469 224.234375 "/>
<path style=" stroke:none;fill-rule:nonzero;fill:rgb(62.745098%,38.039216%,41.568627%);fill-opacity:1;" d="M 106.101562 223.957031 C 106.101562 229.042969 101.460938 233.164062 95.734375 233.164062 C 90.003906 233.164062 85.363281 229.042969 85.363281 223.957031 C 85.363281 218.875 90.003906 214.753906 95.734375 214.753906 C 101.460938 214.753906 106.101562 218.875 106.101562 223.957031 Z M 106.101562 223.957031 "/>
<path style=" stroke:none;fill-rule:nonzero;fill:rgb(18.431373%,18.039216%,25.490196%);fill-opacity:1;" d="M 107.390625 219.851562 C 107.21875 219.933594 107.050781 220.007812 106.875 220.082031 C 106.695312 220.160156 106.515625 220.238281 106.332031 220.308594 C 102.863281 221.707031 100.035156 221.859375 98.320312 219.851562 C 98.273438 218.796875 98.007812 217.757812 97.53125 216.789062 C 97.617188 217.871094 97.292969 218.949219 96.617188 219.851562 L 93.164062 219.851562 C 89.605469 221.949219 87.78125 222.167969 90.25 229.046875 C 90.9375 230.964844 93.675781 242.121094 92.597656 243.773438 C 92.285156 243.742188 88.972656 231.527344 88.671875 231.476562 C 81.910156 230.339844 77.617188 220.453125 78.167969 219.894531 C 78.164062 218.304688 78.574219 216.734375 79.371094 215.308594 C 80.375 213.503906 81.941406 211.988281 83.882812 210.949219 C 85.042969 210.449219 86.25 210.046875 87.492188 209.746094 C 87.523438 209.738281 87.550781 209.730469 87.578125 209.726562 C 87.960938 209.632812 88.347656 209.550781 88.738281 209.480469 C 89.539062 209.328125 90.351562 209.21875 91.167969 209.152344 C 91.226562 209.148438 91.28125 209.144531 91.335938 209.144531 C 91.664062 209.148438 91.984375 209.226562 92.261719 209.371094 C 92.265625 209.371094 92.265625 209.375 92.269531 209.375 C 92.472656 209.480469 92.648438 209.617188 92.785156 209.78125 C 93.03125 210.0625 93.164062 210.402344 93.164062 210.757812 L 97.007812 210.757812 C 97.152344 210.757812 97.292969 210.761719 97.4375 210.765625 C 102.753906 210.929688 107.058594 214.65625 107.375 219.371094 C 107.386719 219.535156 107.390625 219.691406 107.390625 219.851562 Z M 107.390625 219.851562 "/>
<path style=" stroke:none;fill-rule:nonzero;fill:rgb(18.431373%,18.039216%,25.490196%);fill-opacity:1;" d="M 91.550781 210.847656 C 91.550781 214.195312 88.492188 216.910156 84.71875 216.910156 C 80.945312 216.910156 77.886719 214.195312 77.886719 210.847656 C 77.886719 207.496094 80.945312 204.78125 84.71875 204.78125 C 88.492188 204.78125 91.550781 207.496094 91.550781 210.847656 Z M 91.550781 210.847656 "/>
<path style=" stroke:none;fill-rule:nonzero;fill:rgb(62.745098%,38.039216%,41.568627%);fill-opacity:1;" d="M 67.910156 322.765625 C 67.773438 322.84375 67.632812 322.910156 67.488281 322.972656 C 65.363281 323.902344 62.792969 323.125 61.746094 321.238281 C 60.699219 319.351562 61.570312 317.070312 63.699219 316.140625 C 63.769531 316.105469 63.84375 316.078125 63.917969 316.050781 L 63.90625 310.484375 L 63.894531 303.933594 L 63.882812 297.03125 L 69.804688 295.730469 L 69.738281 305.734375 L 69.714844 310.160156 L 69.65625 318.320312 C 70.304688 319.984375 69.582031 321.820312 67.910156 322.765625 Z M 67.910156 322.765625 "/>
<path style=" stroke:none;fill-rule:nonzero;fill:rgb(24.705882%,23.921569%,33.72549%);fill-opacity:1;" d="M 91.316406 251.738281 L 90.699219 252.761719 L 75.238281 278.28125 L 74.773438 279.042969 L 72.589844 295.769531 L 71.855469 301.371094 L 71.667969 302.773438 L 71.667969 302.777344 L 71.566406 303.589844 L 70.710938 310.105469 L 69.710938 310.160156 L 68.03125 310.257812 L 63.90625 310.484375 L 60.820312 310.65625 L 60.824219 306.273438 L 60.878906 273.035156 L 72.113281 254.8125 L 72.386719 254.363281 L 76.726562 247.328125 C 77.714844 245.71875 79.988281 245.132812 81.796875 246.011719 C 81.902344 246.0625 82 246.117188 82.097656 246.175781 Z M 91.316406 251.738281 "/>
<path style=" stroke:none;fill-rule:nonzero;fill:rgb(94.901961%,94.901961%,94.901961%);fill-opacity:1;" d="M 11.660156 344.597656 C 11.660156 347.453125 9.046875 349.769531 5.828125 349.769531 C 2.609375 349.769531 0 347.453125 0 344.597656 C 0 341.738281 2.609375 339.421875 5.828125 339.421875 C 9.046875 339.421875 11.660156 341.738281 11.660156 344.597656 Z M 11.660156 344.597656 "/>
<path style=" stroke:none;fill-rule:nonzero;fill:rgb(90.196078%,90.196078%,90.196078%);fill-opacity:1;" d="M 405.484375 157.046875 C 405.484375 157.046875 403.371094 176.910156 402.199219 191.613281 L 402.199219 191.625 C 402.109375 192.808594 402.023438 193.953125 401.945312 195.058594 L 401.324219 195.109375 C 400.898438 195.144531 400.476562 195.1875 400.050781 195.226562 C 393.238281 195.871094 386.496094 196.9375 379.726562 197.859375 C 379.074219 197.945312 378.425781 198.035156 377.773438 198.121094 C 371.023438 199.097656 364.191406 199.589844 357.351562 199.589844 L 357.222656 199.589844 C 357.277344 198.835938 357.363281 197.84375 357.460938 196.707031 C 358.035156 190.277344 359.191406 179.132812 359.191406 179.132812 L 360.269531 172.683594 L 363.796875 151.546875 L 363.820312 151.386719 L 363.851562 151.203125 L 364.023438 151.164062 L 371.429688 149.457031 L 375.414062 148.542969 L 377.730469 145.707031 L 380.8125 141.933594 L 393.628906 143.335938 L 394.566406 146.4375 L 396.304688 152.160156 L 396.359375 152.34375 L 403.085938 155.808594 Z M 405.484375 157.046875 "/>
<path style=" stroke:none;fill-rule:nonzero;fill:rgb(100%,71.372549%,71.372549%);fill-opacity:1;" d="M 400.773438 128.652344 C 400.773438 135.3125 394.691406 140.710938 387.1875 140.710938 C 379.6875 140.710938 373.605469 135.3125 373.605469 128.652344 C 373.605469 121.992188 379.6875 116.59375 387.1875 116.59375 C 394.691406 116.59375 400.773438 121.992188 400.773438 128.652344 Z M 400.773438 128.652344 "/>
<path style=" stroke:none;fill-rule:nonzero;fill:rgb(18.431373%,18.039216%,25.490196%);fill-opacity:1;" d="M 372.957031 121.355469 C 374.148438 122.210938 373.875 126.371094 375.203125 125.695312 C 376.53125 125.015625 376.808594 123.800781 378.339844 123.789062 C 379.585938 123.847656 380.765625 124.324219 381.640625 125.113281 C 381.800781 125.246094 381.957031 125.382812 382.109375 125.515625 C 382.246094 125.472656 382.382812 125.433594 382.523438 125.402344 C 383.597656 125.171875 384.730469 125.3125 385.691406 125.800781 C 384.804688 125.855469 383.960938 126.15625 383.277344 126.664062 C 383.570312 126.953125 383.867188 127.246094 384.179688 127.515625 C 386.78125 129.777344 392.113281 127.367188 395.703125 126.824219 C 392.714844 129.71875 393.304688 131.335938 394.046875 135.207031 L 394.050781 135.417969 C 394.203125 134.523438 397.421875 134.570312 396.890625 135.753906 C 396.222656 136.921875 395.390625 138.011719 394.410156 138.992188 C 398.796875 136.292969 402.339844 132.574219 403.121094 128.082031 C 403.40625 127.160156 403.464844 126.195312 403.292969 125.253906 C 403.027344 124.296875 402.066406 123.617188 400.957031 123.601562 C 401.953125 120.792969 401.128906 117.726562 398.816406 115.621094 C 396.5 113.511719 393.070312 112.703125 389.882812 113.515625 C 388.453125 113.964844 387.0625 114.5 385.714844 115.113281 C 384.355469 115.726562 382.816406 115.960938 381.300781 115.777344 C 380.359375 115.601562 379.40625 115.171875 378.480469 115.414062 C 377.410156 115.699219 376.949219 116.703125 376.523438 117.671875 C 377.328125 117.933594 378.027344 118.402344 378.53125 119.019531 C 377.699219 118.746094 376.789062 118.710938 375.933594 118.925781 C 375.917969 118.925781 375.902344 118.929688 375.890625 118.933594 C 374.921875 120.476562 374.863281 120.855469 372.957031 121.355469 Z M 372.957031 121.355469 "/>
<path style=" stroke:none;fill-rule:nonzero;fill:rgb(24.705882%,23.921569%,33.72549%);fill-opacity:1;" d="M 379.726562 197.859375 C 379.074219 197.945312 378.425781 198.035156 377.773438 198.121094 C 371.023438 199.097656 364.191406 199.589844 357.351562 199.589844 C 357.402344 198.632812 357.429688 197.671875 357.460938 196.707031 C 357.503906 195.363281 357.535156 194.011719 357.566406 192.660156 C 357.707031 186.53125 357.84375 180.40625 357.984375 174.28125 C 357.992188 173.992188 357.996094 173.691406 358.003906 173.402344 C 358.144531 167.210938 358.332031 160.8125 361.226562 155.171875 C 361.886719 153.886719 362.710938 152.671875 363.679688 151.554688 C 363.730469 151.496094 363.773438 151.441406 363.820312 151.386719 C 363.890625 151.308594 363.957031 151.234375 364.023438 151.164062 C 364.800781 150.304688 365.664062 149.507812 366.605469 148.789062 C 369.542969 146.386719 373.449219 145.132812 377.4375 145.3125 L 377.730469 145.707031 L 378.121094 146.242188 C 377.863281 147.9375 377.601562 149.632812 377.359375 151.332031 C 376.304688 158.691406 375.546875 166.09375 376.394531 173.460938 C 377.113281 179.652344 378.960938 185.714844 379.546875 191.914062 C 379.570312 192.117188 379.585938 192.328125 379.605469 192.535156 C 379.75 194.304688 379.789062 196.085938 379.726562 197.859375 Z M 379.726562 197.859375 "/>
<path style=" stroke:none;fill-rule:nonzero;fill:rgb(24.705882%,23.921569%,33.72549%);fill-opacity:1;" d="M 401.324219 195.105469 C 401.621094 193.953125 401.90625 192.789062 402.207031 191.621094 L 402.207031 191.617188 C 403.363281 187.003906 404.523438 182.390625 405.6875 177.777344 C 407.210938 171.730469 408.734375 165.476562 407.425781 159.394531 C 407.292969 158.765625 407.125 158.148438 406.917969 157.539062 C 406.851562 157.335938 406.777344 157.136719 406.703125 156.9375 C 406.175781 155.539062 405.464844 154.195312 404.578125 152.945312 C 402.261719 149.664062 398.800781 147.113281 394.570312 146.441406 C 394.488281 146.421875 394.410156 146.40625 394.328125 146.398438 L 393.402344 147.160156 C 393.210938 148.734375 393.027344 150.324219 392.828125 151.90625 C 391.878906 159.394531 390.636719 166.875 387.796875 173.957031 C 385.367188 180.015625 381.804688 185.6875 379.578125 191.808594 C 379.570312 191.84375 379.554688 191.882812 379.546875 191.910156 C 378.8125 193.945312 378.21875 196.019531 377.773438 198.121094 C 378.421875 198.03125 379.078125 197.949219 379.730469 197.863281 C 386.5 196.9375 393.238281 195.875 400.046875 195.230469 Z M 401.324219 195.105469 "/>
<path style=" stroke:none;fill-rule:nonzero;fill:rgb(100%,71.372549%,71.372549%);fill-opacity:1;" d="M 414.554688 126.117188 L 414.164062 122.796875 L 414.074219 122.027344 L 413.933594 120.792969 L 410.921875 95.167969 C 411.433594 93.648438 410.726562 92.011719 409.199219 91.1875 C 407.414062 90.242188 405.101562 90.757812 404.035156 92.34375 C 404.015625 92.371094 404.003906 92.398438 403.984375 92.425781 C 402.921875 94.070312 403.527344 96.171875 405.347656 97.164062 C 405.53125 97.253906 405.71875 97.335938 405.917969 97.402344 L 405.890625 98.121094 L 405.820312 100.375 L 405.765625 102.078125 L 405.648438 105.46875 L 405.605469 106.78125 L 405.464844 111.042969 L 405.332031 115.152344 L 405.167969 120.136719 L 405.039062 123.964844 L 406.59375 124.316406 Z M 414.554688 126.117188 "/>
<path style=" stroke:none;fill-rule:nonzero;fill:rgb(24.705882%,23.921569%,33.72549%);fill-opacity:1;" d="M 417.5625 131.574219 C 417.5 131.128906 417.378906 130.691406 417.203125 130.269531 C 416.417969 129.058594 415.9375 130.75 416.371094 127.503906 C 416.71875 124.871094 414.632812 125.203125 415.382812 124.640625 C 416.621094 123.710938 414.914062 123.296875 414.164062 122.796875 C 413.828125 122.574219 413.691406 122.335938 414.074219 122.027344 C 414.253906 121.886719 414.453125 121.773438 414.671875 121.679688 C 415.488281 121.304688 415.015625 121.015625 413.933594 120.792969 C 411.492188 120.433594 409.027344 120.230469 406.554688 120.183594 C 405.957031 120.15625 405.472656 120.144531 405.167969 120.136719 C 404.941406 120.128906 404.8125 120.128906 404.8125 120.128906 C 404.386719 120.488281 404.121094 120.96875 404.0625 121.488281 C 403.882812 122.585938 403.980469 123.707031 404.34375 124.769531 C 404.59375 125.507812 404.925781 126.222656 405.335938 126.898438 C 405.492188 127.15625 405.566406 127.445312 405.542969 127.734375 L 405.542969 127.738281 C 405.457031 128.085938 405.199219 128.378906 404.84375 128.539062 C 404.019531 129.023438 404.476562 130.046875 405.117188 131.011719 C 405.660156 131.65625 406.125 132.351562 406.496094 133.085938 C 406.496094 133.75 401.425781 147.886719 401.425781 147.886719 L 403.289062 169.230469 C 404.671875 170.179688 406.417969 170.605469 408.152344 170.425781 C 409.597656 170.210938 410.933594 169.605469 411.984375 168.695312 C 413.457031 167.417969 414.65625 165.910156 415.523438 164.246094 C 420.445312 155.46875 418.613281 136.753906 417.5625 131.574219 Z M 417.5625 131.574219 "/>
<path style=" stroke:none;fill-rule:nonzero;fill:rgb(100%,71.372549%,71.372549%);fill-opacity:1;" d="M 325.132812 96.371094 C 327.054688 97.203125 327.882812 99.242188 327 100.972656 C 326.910156 101.140625 326.804688 101.300781 326.683594 101.453125 L 344.210938 122.992188 L 337.695312 129.515625 L 321.125 102.101562 C 319.742188 101.097656 319.292969 99.390625 320.035156 97.949219 C 320.914062 96.273438 323.15625 95.550781 325.042969 96.332031 C 325.074219 96.34375 325.101562 96.359375 325.132812 96.371094 Z M 325.132812 96.371094 "/>
<path style=" stroke:none;fill-rule:nonzero;fill:rgb(24.705882%,23.921569%,33.72549%);fill-opacity:1;" d="M 374.269531 159.53125 C 374.269531 159.53125 371.925781 166.96875 360.988281 161.503906 C 350.054688 156.039062 338.226562 135.625 338.109375 134.226562 C 337.992188 132.828125 339.460938 133.992188 337.054688 131.523438 C 335.09375 129.515625 337.027344 128.75 336.054688 128.660156 C 333.484375 128.414062 337.945312 125.523438 334.773438 125.855469 C 331.601562 126.183594 341.945312 119.65625 341.945312 119.65625 C 341.945312 119.65625 343.832031 119.695312 345.273438 123.265625 C 346.078125 125.269531 345.316406 126.640625 347.242188 126.632812 C 349.167969 126.625 348.34375 130.683594 348.75 131.222656 C 349.160156 131.757812 362.304688 140.9375 362.304688 140.9375 Z M 374.269531 159.53125 "/>
<path style=" stroke:none;fill-rule:nonzero;fill:rgb(42.352941%,38.823529%,100%);fill-opacity:1;" d="M 423.074219 56.242188 C 423.074219 87.300781 394.710938 112.480469 359.71875 112.480469 C 324.730469 112.480469 296.363281 87.300781 296.363281 56.242188 C 296.363281 25.179688 324.730469 0 359.71875 0 C 394.710938 0 423.074219 25.179688 423.074219 56.242188 Z M 423.074219 56.242188 "/>
<path style=" stroke:none;fill-rule:nonzero;fill:rgb(100%,100%,100%);fill-opacity:1;" d="M 327.527344 43.726562 C 328.1875 44.839844 328.6875 46.019531 329.027344 47.242188 C 329.886719 50.457031 329.28125 53.371094 327.304688 54.738281 C 327.109375 54.882812 326.894531 55.003906 326.667969 55.109375 C 324.195312 56.257812 320.785156 55.046875 318.050781 52.335938 C 317.113281 51.394531 316.308594 50.351562 315.652344 49.238281 C 315 48.136719 314.5 46.964844 314.167969 45.757812 C 313.203125 42.207031 314.023438 39.007812 316.503906 37.855469 C 319.789062 36.332031 324.722656 38.964844 327.527344 43.726562 Z M 327.527344 43.726562 "/>
<path style=" stroke:none;fill-rule:nonzero;fill:rgb(24.705882%,23.921569%,33.72549%);fill-opacity:1;" d="M 326.476562 49.21875 C 327.480469 50.914062 327.773438 52.871094 327.304688 54.738281 C 327.109375 54.882812 326.894531 55.003906 326.667969 55.109375 C 324.195312 56.257812 320.785156 55.046875 318.050781 52.335938 C 317.113281 51.394531 316.308594 50.351562 315.652344 49.238281 C 315 48.136719 314.5 46.964844 314.167969 45.757812 C 318.644531 43.707031 324.144531 45.253906 326.476562 49.21875 Z M 326.476562 49.21875 "/>
<path style=" stroke:none;fill-rule:nonzero;fill:rgb(100%,100%,100%);fill-opacity:1;" d="M 352.121094 32.308594 C 354.816406 36.878906 354.570312 41.757812 351.644531 43.492188 C 351.523438 43.566406 351.394531 43.632812 351.265625 43.691406 C 347.988281 45.214844 343.054688 42.582031 340.25 37.820312 C 339.59375 36.71875 339.097656 35.554688 338.765625 34.34375 C 337.800781 30.789062 338.621094 27.589844 341.097656 26.4375 C 344.382812 24.914062 349.316406 27.546875 352.121094 32.308594 Z M 352.121094 32.308594 "/>
<path style=" stroke:none;fill-rule:nonzero;fill:rgb(24.705882%,23.921569%,33.72549%);fill-opacity:1;" d="M 350.828125 37.914062 C 351.84375 39.625 352.132812 41.605469 351.644531 43.492188 C 351.523438 43.566406 351.394531 43.632812 351.265625 43.691406 C 347.988281 45.214844 343.054688 42.582031 340.25 37.820312 C 339.59375 36.71875 339.097656 35.554688 338.765625 34.34375 C 343.214844 32.457031 348.546875 34.035156 350.828125 37.914062 Z M 350.828125 37.914062 "/>
<path style=" stroke:none;fill-rule:nonzero;fill:rgb(100%,100%,100%);fill-opacity:1;" d="M 324.421875 76.03125 C 331.878906 88.695312 346.351562 95.050781 356.742188 90.222656 C 367.136719 85.398438 369.515625 71.222656 362.054688 58.5625 C 353.859375 69.167969 341.449219 75.140625 324.421875 76.03125 Z M 324.421875 76.03125 "/>
<use xlink:href="#surface5" mask="url(#mask0)"/>
</g>
</svg>
