<?xml version="1.0" encoding="UTF-8"?>
<svg xmlns="http://www.w3.org/2000/svg" xmlns:xlink="http://www.w3.org/1999/xlink" width="160px" height="195px" viewBox="0 0 160 194" version="1.1">
<g id="surface1">
<path style=" stroke:none;fill-rule:nonzero;fill:rgb(94.901961%,94.901961%,94.901961%);fill-opacity:1;" d="M 30.65625 76.167969 C 30.472656 75.878906 29.304688 74.0625 28.4375 74.25 C 26.800781 74.597656 27.6875 81.824219 25.308594 82.542969 C 24.785156 82.703125 24.046875 82.5625 22.402344 83 C 21.75 83.175781 21.410156 83.316406 21.308594 83.605469 C 21.15625 84.015625 21.609375 84.359375 22.277344 85.355469 C 23.285156 86.847656 22.976562 87.125 23.863281 88.195312 C 24.519531 88.988281 25.03125 89.253906 24.933594 89.605469 C 24.789062 90.101562 23.664062 89.886719 23.394531 90.453125 C 23.117188 91.03125 23.917969 92.027344 24.613281 92.636719 C 25.910156 93.785156 27.207031 93.894531 28.386719 94.269531 C 29.675781 94.679688 31.4375 95.589844 33.261719 97.867188 L 47.832031 117.492188 C 46.660156 117.050781 44.367188 116.140625 41.246094 114.582031 C 38.613281 113.269531 36 111.777344 33.484375 110.136719 C 32.398438 109.433594 31.449219 108.777344 30.597656 108.164062 L 30.683594 108.210938 L 30.265625 106.710938 C 30.105469 106.113281 30.003906 105.625 30.222656 105.238281 C 30.347656 105.027344 30.578125 104.8125 30.847656 104.5625 C 31.152344 104.273438 31.503906 103.953125 31.847656 103.5 C 32.160156 103.09375 32.234375 102.734375 32.074219 102.433594 C 32.023438 102.332031 31.953125 102.257812 31.878906 102.203125 C 31.960938 102.066406 32.058594 101.910156 32.144531 101.722656 C 32.328125 101.320312 32.367188 100.972656 32.402344 100.71875 C 32.535156 99.6875 32.367188 99.078125 31.902344 98.914062 C 31.707031 98.839844 31.527344 98.875 31.378906 98.945312 C 31.367188 98.734375 31.339844 98.484375 31.261719 98.214844 C 31.011719 97.355469 30.667969 96.917969 30.207031 96.882812 C 29.558594 96.832031 29.234375 97.539062 28.855469 98.359375 C 28.6875 98.722656 28.246094 99.695312 28.015625 99.695312 C 27.988281 99.695312 27.902344 99.679688 27.832031 99.664062 C 27.632812 99.617188 27.335938 99.554688 26.867188 99.542969 C 26.609375 99.535156 26.214844 99.523438 25.972656 99.847656 C 25.757812 100.152344 25.863281 100.480469 25.960938 100.746094 C 25.992188 100.832031 26.03125 100.933594 26.070312 101.058594 C 26.160156 101.34375 26.171875 101.496094 26.1875 101.644531 C 26.207031 101.835938 26.226562 102.039062 26.367188 102.367188 C 26.378906 102.394531 26.386719 102.417969 26.402344 102.445312 C 26.269531 102.472656 26.132812 102.539062 26.015625 102.664062 C 25.582031 103.132812 25.988281 103.910156 26.179688 104.21875 C 26.527344 104.773438 26.964844 105.039062 27.316406 105.253906 C 27.40625 105.308594 27.492188 105.363281 27.582031 105.414062 C 28.015625 105.714844 28.378906 106.164062 28.667969 106.742188 C 28.328125 106.480469 27.996094 106.226562 27.6875 105.996094 C 26.582031 105.148438 25.542969 104.324219 24.527344 103.515625 C 23.488281 102.6875 22.464844 101.878906 21.425781 101.089844 L 21.492188 100.804688 L 21.242188 100.953125 C 19.601562 99.710938 17.917969 98.523438 16.023438 97.394531 C 15.945312 97.34375 15.851562 97.289062 15.757812 97.238281 L 15.667969 96.910156 C 15.507812 96.316406 15.402344 95.828125 15.625 95.4375 C 15.746094 95.230469 15.976562 95.011719 16.246094 94.761719 C 16.554688 94.476562 16.90625 94.152344 17.246094 93.703125 C 17.5625 93.296875 17.632812 92.9375 17.476562 92.632812 C 17.421875 92.53125 17.351562 92.457031 17.277344 92.40625 C 17.363281 92.269531 17.460938 92.109375 17.542969 91.921875 C 17.726562 91.519531 17.773438 91.175781 17.804688 90.917969 C 17.9375 89.890625 17.769531 89.28125 17.304688 89.113281 C 17.105469 89.042969 16.929688 89.078125 16.78125 89.144531 C 16.769531 88.933594 16.742188 88.683594 16.664062 88.414062 C 16.414062 87.554688 16.066406 87.121094 15.605469 87.082031 C 14.960938 87.03125 14.632812 87.738281 14.257812 88.5625 C 14.089844 88.925781 13.648438 89.894531 13.417969 89.898438 C 13.386719 89.898438 13.308594 89.878906 13.234375 89.863281 C 13.035156 89.820312 12.738281 89.757812 12.273438 89.746094 C 12.007812 89.734375 11.617188 89.726562 11.375 90.046875 C 11.160156 90.355469 11.265625 90.683594 11.363281 90.945312 C 11.394531 91.035156 11.4375 91.136719 11.472656 91.261719 C 11.5625 91.546875 11.578125 91.695312 11.589844 91.84375 C 11.609375 92.039062 11.628906 92.238281 11.769531 92.566406 C 11.777344 92.597656 11.792969 92.621094 11.800781 92.644531 C 11.667969 92.675781 11.535156 92.738281 11.417969 92.867188 C 10.988281 93.335938 11.390625 94.113281 11.582031 94.421875 C 11.929688 94.976562 12.367188 95.242188 12.722656 95.457031 C 12.808594 95.511719 12.898438 95.5625 12.980469 95.617188 C 13.226562 95.785156 13.453125 96.003906 13.652344 96.265625 C 13.007812 96.046875 12.269531 95.871094 11.433594 95.792969 C 10.433594 95.703125 9.417969 95.769531 8.410156 95.988281 C 8.402344 95.914062 8.398438 95.839844 8.386719 95.757812 C 8.300781 94.832031 8.242188 94.449219 7.917969 94.089844 C 7.761719 93.914062 7.527344 93.722656 6.847656 93.5 C 5.902344 93.195312 5.097656 93.148438 4.867188 93.144531 C 3.742188 93.113281 2.769531 93.082031 1.882812 93.761719 C 1.71875 93.890625 1.207031 94.277344 0.921875 94.964844 C 0.777344 95.308594 0.753906 95.589844 0.730469 95.816406 C 0.710938 96.054688 0.695312 96.207031 0.5625 96.425781 C 0.476562 96.566406 0.378906 96.679688 0.296875 96.773438 C 0.140625 96.957031 -0.152344 97.289062 0.09375 97.65625 C 0.152344 97.746094 0.226562 97.804688 0.3125 97.847656 C 0.265625 98.15625 0.292969 98.476562 0.449219 98.769531 C 0.585938 99.027344 0.824219 99.203125 1.464844 99.511719 C 2.445312 99.988281 3.234375 100.222656 3.390625 100.269531 C 4.40625 100.550781 4.917969 100.695312 5.464844 100.675781 C 6.628906 100.628906 7.472656 100.269531 7.972656 99.609375 C 8 99.578125 8.027344 99.546875 8.046875 99.511719 C 8.402344 98.992188 8.4375 98.445312 8.5 97.578125 C 8.507812 97.414062 8.507812 97.21875 8.492188 96.972656 C 9.445312 96.753906 10.402344 96.675781 11.34375 96.761719 C 13.378906 96.949219 14.824219 97.8125 15.519531 98.226562 C 17.25 99.257812 18.8125 100.347656 20.324219 101.480469 L 20.140625 101.585938 C 19.601562 101.890625 19.15625 102.117188 18.71875 102 C 18.484375 101.9375 18.214844 101.769531 17.902344 101.574219 C 17.546875 101.351562 17.144531 101.097656 16.621094 100.882812 C 16.148438 100.679688 15.777344 100.703125 15.523438 100.933594 C 15.4375 101.007812 15.382812 101.097656 15.347656 101.179688 C 15.199219 101.132812 15.023438 101.078125 14.8125 101.042969 C 14.378906 100.972656 14.03125 101.015625 13.777344 101.050781 C 12.738281 101.1875 12.1875 101.503906 12.144531 101.992188 C 12.128906 102.199219 12.203125 102.363281 12.308594 102.488281 C 12.105469 102.550781 11.871094 102.640625 11.628906 102.785156 C 10.855469 103.242188 10.519531 103.6875 10.601562 104.140625 C 10.714844 104.773438 11.488281 104.90625 12.382812 105.0625 C 12.777344 105.132812 13.832031 105.308594 13.894531 105.535156 C 13.902344 105.558594 13.902344 105.644531 13.90625 105.714844 C 13.917969 105.917969 13.929688 106.222656 14.035156 106.675781 C 14.09375 106.929688 14.183594 107.308594 14.558594 107.460938 C 14.910156 107.589844 15.203125 107.40625 15.433594 107.246094 C 15.507812 107.191406 15.597656 107.125 15.710938 107.058594 C 15.964844 106.902344 16.109375 106.847656 16.25 106.796875 C 16.433594 106.730469 16.621094 106.660156 16.910156 106.441406 C 16.933594 106.421875 16.957031 106.40625 16.972656 106.390625 C 17.039062 106.507812 17.132812 106.625 17.285156 106.703125 C 17.851562 107 18.503906 106.414062 18.757812 106.152344 C 19.207031 105.679688 19.351562 105.1875 19.472656 104.796875 C 19.503906 104.695312 19.53125 104.597656 19.566406 104.5 C 19.78125 103.898438 20.230469 103.339844 20.902344 102.84375 L 21.046875 102.738281 L 21.1875 102.136719 C 22.097656 102.835938 23 103.546875 23.917969 104.277344 C 24.9375 105.085938 25.980469 105.914062 27.09375 106.765625 C 28.5625 107.890625 30.398438 109.292969 32.949219 110.953125 C 35.496094 112.609375 38.140625 114.121094 40.808594 115.453125 C 43.1875 116.640625 45.085938 117.453125 46.394531 117.980469 C 42.589844 118.230469 37.324219 118.53125 34.945312 118.574219 C 34.019531 118.589844 33.066406 118.578125 32.386719 117.941406 C 31.734375 117.328125 31.414062 116.210938 30.460938 115.046875 C 30.347656 114.910156 30.035156 114.535156 29.757812 114.597656 C 29.527344 114.65625 29.53125 114.960938 29.316406 115.015625 C 29.027344 115.089844 28.789062 114.597656 28.195312 114.132812 C 27.777344 113.804688 27.394531 113.664062 27.066406 113.535156 C 26.96875 113.5 25.484375 112.941406 25.210938 113.347656 C 25.007812 113.648438 25.664062 114.234375 25.472656 114.492188 C 25.277344 114.746094 24.558594 114.257812 23.472656 114.296875 C 23.277344 114.304688 22.042969 114.351562 21.882812 114.828125 C 21.585938 115.726562 25.40625 117.378906 25.074219 118.75 C 25 119.050781 24.722656 119.371094 24.460938 120.300781 C 24.359375 120.667969 24.332031 120.875 24.441406 121.011719 C 24.601562 121.203125 24.902344 121.082031 25.585938 121.039062 C 26.617188 120.976562 26.660156 121.207031 27.445312 121.085938 C 28.027344 120.996094 28.304688 120.820312 28.449219 120.96875 C 28.652344 121.183594 28.222656 121.667969 28.421875 121.964844 C 28.628906 122.265625 29.351562 122.164062 29.851562 122 C 30.792969 121.699219 31.21875 121.097656 31.746094 120.625 C 32.320312 120.113281 33.277344 119.519531 34.925781 119.285156 L 46.605469 118.0625 C 47.289062 118.332031 47.792969 118.519531 48.085938 118.628906 C 48.242188 118.683594 48.34375 118.722656 48.382812 118.738281 L 48.539062 118.441406 L 48.710938 118.675781 C 48.65625 118.597656 48.597656 118.515625 48.542969 118.4375 L 48.609375 118.308594 L 49.054688 118.109375 C 48.992188 117.976562 48.929688 117.914062 48.75 117.839844 L 49.648438 117.746094 C 49.378906 117.769531 49.050781 117.789062 48.703125 117.816406 C 48.628906 117.785156 48.539062 117.753906 48.421875 117.714844 C 48.292969 117.664062 48.117188 117.597656 47.902344 117.519531 C 44.359375 112.4375 37.074219 101.667969 34.359375 97.261719 C 33.511719 95.882812 32.6875 94.4375 33.046875 92.84375 C 33.402344 91.3125 34.8125 89.835938 35.742188 87.363281 C 35.847656 87.074219 36.136719 86.265625 35.789062 85.90625 C 35.5 85.609375 35.039062 85.886719 34.765625 85.613281 C 34.402344 85.246094 34.9375 84.445312 35.109375 83.140625 C 35.234375 82.21875 35.117188 81.515625 35.015625 80.90625 C 34.984375 80.726562 34.511719 77.992188 33.652344 77.945312 C 33.007812 77.90625 32.707031 79.414062 32.140625 79.351562 C 31.578125 79.285156 31.683594 77.765625 30.65625 76.167969 Z M 30.65625 76.167969 "/>
<path style=" stroke:none;fill-rule:nonzero;fill:rgb(90.196078%,90.196078%,90.196078%);fill-opacity:1;" d="M 150.027344 139.632812 L 45.71875 125.285156 C 42.226562 124.804688 39.347656 122.316406 38.375 118.945312 L 14.417969 35.511719 C 13.605469 32.683594 14.214844 29.757812 16.082031 27.476562 C 17.949219 25.199219 20.710938 24.023438 23.660156 24.246094 L 128.75 32.257812 C 132.554688 32.546875 135.742188 35.210938 136.691406 38.886719 L 159.867188 128.652344 C 160.609375 131.515625 159.867188 134.546875 157.890625 136.75 C 156.1875 138.652344 153.769531 139.714844 151.253906 139.714844 C 150.847656 139.714844 150.4375 139.6875 150.027344 139.632812 Z M 150.027344 139.632812 "/>
<path style=" stroke:none;fill-rule:nonzero;fill:rgb(100%,100%,100%);fill-opacity:1;" d="M 123.652344 120.964844 L 90.5625 116.414062 C 89.457031 116.265625 88.542969 115.476562 88.238281 114.402344 L 80.636719 87.941406 C 80.382812 87.046875 80.574219 86.117188 81.167969 85.394531 C 81.757812 84.671875 82.632812 84.296875 83.566406 84.371094 L 116.902344 86.910156 C 118.109375 87 119.117188 87.84375 119.417969 89.011719 L 126.773438 117.484375 C 127.007812 118.394531 126.773438 119.355469 126.144531 120.054688 C 125.601562 120.65625 124.835938 120.996094 124.039062 120.996094 C 123.910156 120.996094 123.777344 120.984375 123.652344 120.964844 Z M 123.652344 120.964844 "/>
<path style=" stroke:none;fill-rule:nonzero;fill:rgb(100%,100%,100%);fill-opacity:1;" d="M 120.6875 47.546875 L 59.273438 41.921875 C 57.722656 41.777344 56.519531 41.070312 56.585938 40.34375 C 56.652344 39.613281 57.96875 39.136719 59.519531 39.28125 L 120.9375 44.90625 C 122.484375 45.046875 123.6875 45.753906 123.617188 46.480469 C 123.550781 47.210938 122.238281 47.6875 120.6875 47.546875 Z M 120.6875 47.546875 "/>
<path style=" stroke:none;fill-rule:nonzero;fill:rgb(100%,100%,100%);fill-opacity:1;" d="M 124.039062 63.609375 L 62.621094 57.984375 C 61.074219 57.84375 59.867188 57.132812 59.9375 56.40625 C 60.003906 55.679688 61.316406 55.203125 62.867188 55.34375 L 124.28125 60.96875 C 125.832031 61.109375 127.035156 61.816406 126.96875 62.546875 C 126.902344 63.273438 125.585938 63.753906 124.039062 63.609375 Z M 124.039062 63.609375 "/>
<path style=" stroke:none;fill-rule:nonzero;fill:rgb(100%,100%,100%);fill-opacity:1;" d="M 125.222656 77.609375 L 63.804688 71.984375 C 62.257812 71.84375 61.050781 71.136719 61.117188 70.40625 C 61.1875 69.675781 62.5 69.199219 64.046875 69.339844 L 125.464844 74.964844 C 127.015625 75.109375 128.21875 75.816406 128.152344 76.546875 C 128.082031 77.273438 126.769531 77.75 125.222656 77.609375 Z M 125.222656 77.609375 "/>
<path style=" stroke:none;fill-rule:nonzero;fill:rgb(100%,71.372549%,71.372549%);fill-opacity:1;" d="M 88.214844 70.847656 C 89.757812 69.175781 91.871094 68.613281 92.941406 69.585938 C 94.007812 70.566406 93.628906 72.710938 92.082031 74.382812 C 91.476562 75.058594 90.71875 75.578125 89.867188 75.902344 L 83.242188 82.902344 L 80.007812 79.738281 L 86.882812 73.179688 C 87.132812 72.304688 87.589844 71.507812 88.214844 70.847656 Z M 88.214844 70.847656 "/>
<path style=" stroke:none;fill-rule:nonzero;fill:rgb(42.352941%,38.823529%,100%);fill-opacity:1;" d="M 50.464844 72.40625 C 50.464844 72.40625 54.332031 68.882812 58.964844 71.957031 C 63.59375 75.03125 74.378906 82.894531 74.378906 82.894531 L 81.933594 73.570312 L 87.882812 78.945312 C 87.882812 78.945312 77.382812 97.347656 70.597656 93.296875 C 63.8125 89.246094 48.667969 77.679688 49.355469 75.289062 C 50.042969 72.898438 50.464844 72.40625 50.464844 72.40625 Z M 50.464844 72.40625 "/>
<path style=" stroke:none;fill-rule:nonzero;fill:rgb(100%,71.372549%,71.372549%);fill-opacity:1;" d="M 79.117188 158.304688 L 72.953125 169.734375 L 67.871094 163.621094 L 73.714844 155.765625 Z M 79.117188 158.304688 "/>
<path style=" stroke:none;fill-rule:nonzero;fill:rgb(18.431373%,18.039216%,25.490196%);fill-opacity:1;" d="M 75.128906 168.15625 L 72.519531 182.179688 C 72.519531 182.179688 70.769531 187.042969 67.957031 182.101562 C 65.140625 177.160156 60.042969 166.941406 62.972656 165.070312 C 65.902344 163.195312 69.441406 161.683594 69.441406 161.683594 Z M 75.128906 168.15625 "/>
<path style=" stroke:none;fill-rule:nonzero;fill:rgb(100%,71.372549%,71.372549%);fill-opacity:1;" d="M 82.753906 170.753906 L 89.257812 182.402344 L 81.128906 183.371094 L 77.550781 173.988281 Z M 82.753906 170.753906 "/>
<path style=" stroke:none;fill-rule:nonzero;fill:rgb(100%,71.372549%,71.372549%);fill-opacity:1;" d="M 48.28125 65.265625 C 48.28125 65.265625 47.632812 71.738281 46.65625 72.382812 C 45.679688 73.027344 58.042969 72.382812 58.042969 72.382812 L 54.460938 65.265625 Z M 48.28125 65.265625 "/>
<path style=" stroke:none;fill-rule:nonzero;fill:rgb(42.352941%,38.823529%,100%);fill-opacity:1;" d="M 61.613281 74.328125 L 57.0625 70.765625 L 45.9375 70.765625 L 38.527344 76.914062 L 43.242188 98.753906 L 40.964844 109.433594 L 69.90625 110.402344 L 64.707031 100.695312 C 64.707031 100.695312 70.882812 94.222656 68.933594 90.015625 C 66.980469 85.8125 61.613281 74.328125 61.613281 74.328125 Z M 61.613281 74.328125 "/>
<path style=" stroke:none;fill-rule:nonzero;fill:rgb(18.431373%,18.039216%,25.490196%);fill-opacity:1;" d="M 66.980469 107.8125 L 71.207031 110.082031 C 71.207031 110.082031 93.972656 131.4375 92.023438 137.910156 C 90.070312 144.382812 77.0625 162.824219 77.0625 162.824219 L 70.882812 159.589844 L 79.992188 139.851562 L 62.589844 122.539062 L 71.929688 138.917969 L 85.191406 173.503906 L 77.386719 176.738281 L 57.222656 136.292969 C 57.222656 136.292969 40.640625 124.964844 39.664062 117.847656 C 38.6875 110.726562 40.964844 109.433594 40.964844 109.433594 Z M 66.980469 107.8125 "/>
<path style=" stroke:none;fill-rule:nonzero;fill:rgb(18.431373%,18.039216%,25.490196%);fill-opacity:1;" d="M 89.097656 179.652344 L 99.828125 189.683594 C 99.828125 189.683594 103.082031 193.886719 97.222656 193.566406 C 91.371094 193.242188 79.664062 191.945312 79.664062 188.386719 C 79.664062 184.828125 80.3125 180.945312 80.3125 180.945312 Z M 89.097656 179.652344 "/>
<path style=" stroke:none;fill-rule:nonzero;fill:rgb(100%,71.372549%,71.372549%);fill-opacity:1;" d="M 59.011719 59.4375 C 59.011719 63.550781 55.664062 66.882812 51.535156 66.882812 C 47.402344 66.882812 44.054688 63.550781 44.054688 59.4375 C 44.054688 55.328125 47.402344 51.996094 51.535156 51.996094 C 55.664062 51.996094 59.011719 55.328125 59.011719 59.4375 Z M 59.011719 59.4375 "/>
<path style=" stroke:none;fill-rule:nonzero;fill:rgb(100%,100%,100%);fill-opacity:1;" d="M 83.980469 89.132812 L 77.816406 107.8125 C 77.652344 108.3125 77.226562 108.679688 76.707031 108.769531 L 64.917969 110.808594 C 63.863281 110.992188 62.988281 109.992188 63.316406 108.976562 L 69.472656 90.042969 C 69.640625 89.53125 70.082031 89.15625 70.617188 89.078125 L 82.414062 87.292969 C 83.460938 87.132812 84.3125 88.128906 83.980469 89.132812 Z M 83.980469 89.132812 "/>
<path style=" stroke:none;fill-rule:nonzero;fill:rgb(24.705882%,23.921569%,33.72549%);fill-opacity:1;" d="M 64.667969 111.15625 C 64.167969 111.15625 63.6875 110.941406 63.351562 110.554688 C 62.945312 110.089844 62.816406 109.460938 63.007812 108.875 L 69.164062 89.941406 C 69.371094 89.308594 69.90625 88.855469 70.566406 88.757812 L 82.363281 86.96875 C 82.96875 86.878906 83.566406 87.105469 83.964844 87.566406 C 84.359375 88.035156 84.480469 88.65625 84.292969 89.238281 L 78.125 107.917969 C 77.921875 108.53125 77.402344 108.976562 76.761719 109.089844 L 64.972656 111.128906 C 64.871094 111.144531 64.769531 111.15625 64.667969 111.15625 Z M 82.632812 87.597656 C 82.574219 87.597656 82.519531 87.601562 82.460938 87.613281 L 70.664062 89.394531 C 70.25 89.460938 69.914062 89.746094 69.785156 90.140625 L 63.644531 109.027344 C 63.53125 109.375 63.566406 109.761719 63.785156 110.054688 C 64.039062 110.402344 64.449219 110.5625 64.863281 110.492188 L 69.59375 109.671875 C 74.335938 108.851562 78.242188 105.496094 79.742188 100.941406 L 83.660156 89.070312 C 83.757812 88.769531 83.746094 88.4375 83.589844 88.164062 C 83.386719 87.804688 83.019531 87.597656 82.632812 87.597656 Z M 82.632812 87.597656 "/>
<path style=" stroke:none;fill-rule:nonzero;fill:rgb(100%,71.372549%,71.372549%);fill-opacity:1;" d="M 65.988281 103.6875 C 68.261719 103.773438 70.066406 105.011719 70.011719 106.453125 C 69.957031 107.894531 68.070312 108.996094 65.792969 108.910156 C 64.878906 108.890625 63.988281 108.652344 63.1875 108.21875 L 53.539062 107.742188 L 53.863281 103.242188 L 63.335938 104.1875 C 64.167969 103.8125 65.078125 103.640625 65.988281 103.6875 Z M 65.988281 103.6875 "/>
<path style=" stroke:none;fill-rule:nonzero;fill:rgb(42.352941%,38.823529%,100%);fill-opacity:1;" d="M 40.3125 76.105469 C 40.3125 76.105469 45.519531 76.75 46.167969 82.253906 C 46.816406 87.753906 47.792969 101.019531 47.792969 101.019531 L 59.828125 100.695312 L 59.582031 108.6875 C 59.582031 108.6875 38.6875 112.667969 37.386719 104.902344 C 36.085938 97.136719 35.113281 78.164062 37.386719 77.132812 C 39.664062 76.105469 40.3125 76.105469 40.3125 76.105469 Z M 40.3125 76.105469 "/>
<path style=" stroke:none;fill-rule:nonzero;fill:rgb(24.705882%,23.921569%,33.72549%);fill-opacity:1;" d="M 107.882812 24.164062 L 105.207031 22.902344 C 106.304688 24.429688 107.25 26.808594 107.757812 28.703125 C 108.613281 26.9375 109.992188 24.78125 111.363281 23.488281 L 108.535156 24.214844 C 110.277344 15.710938 116.832031 9.613281 124.339844 9.613281 L 124.445312 9.304688 C 116.605469 9.304688 109.660156 15.324219 107.882812 24.164062 Z M 107.882812 24.164062 "/>
<path style=" stroke:none;fill-rule:nonzero;fill:rgb(42.352941%,38.823529%,100%);fill-opacity:1;" d="M 120.199219 37.117188 L 103.289062 37.117188 C 102.574219 37.117188 101.992188 36.535156 101.992188 35.820312 C 101.992188 35.109375 102.574219 34.527344 103.289062 34.527344 L 120.199219 34.527344 C 120.917969 34.527344 121.5 35.109375 121.5 35.820312 C 121.5 36.535156 120.917969 37.117188 120.199219 37.117188 Z M 120.199219 37.117188 "/>
<path style=" stroke:none;fill-rule:nonzero;fill:rgb(24.705882%,23.921569%,33.72549%);fill-opacity:1;" d="M 81.757812 92.023438 L 70.667969 92.953125 C 70.386719 92.976562 70.144531 92.769531 70.117188 92.492188 C 70.097656 92.214844 70.304688 91.96875 70.582031 91.945312 L 81.671875 91.015625 C 81.953125 90.992188 82.199219 91.199219 82.222656 91.476562 C 82.246094 91.757812 82.039062 92 81.757812 92.023438 Z M 81.757812 92.023438 "/>
<path style=" stroke:none;fill-rule:nonzero;fill:rgb(24.705882%,23.921569%,33.72549%);fill-opacity:1;" d="M 80.78125 95.261719 L 69.691406 96.1875 C 69.414062 96.214844 69.167969 96.003906 69.144531 95.726562 C 69.117188 95.449219 69.328125 95.203125 69.609375 95.179688 L 80.699219 94.25 C 80.976562 94.226562 81.222656 94.4375 81.246094 94.714844 C 81.269531 94.992188 81.0625 95.234375 80.78125 95.261719 Z M 80.78125 95.261719 "/>
<path style=" stroke:none;fill-rule:nonzero;fill:rgb(24.705882%,23.921569%,33.72549%);fill-opacity:1;" d="M 79.808594 98.496094 L 68.71875 99.421875 C 68.4375 99.449219 68.191406 99.242188 68.167969 98.964844 C 68.144531 98.683594 68.351562 98.4375 68.632812 98.417969 L 79.722656 97.484375 C 80 97.464844 80.246094 97.667969 80.273438 97.945312 C 80.292969 98.226562 80.085938 98.472656 79.808594 98.496094 Z M 79.808594 98.496094 "/>
<path style=" stroke:none;fill-rule:nonzero;fill:rgb(18.431373%,18.039216%,25.490196%);fill-opacity:1;" d="M 49.53125 62.113281 L 54.765625 56.136719 L 53.890625 53.617188 L 56.703125 56.269531 L 58.152344 55.878906 C 58.152344 55.878906 58.136719 50.761719 54.03125 50.527344 C 49.921875 50.296875 46.972656 50.730469 46.972656 50.730469 C 46.972656 50.730469 41.097656 52.5625 40.871094 53.964844 C 40.640625 55.367188 37.347656 57.234375 37.347656 57.234375 C 37.347656 57.234375 34.496094 59.347656 35.832031 62.890625 C 37.164062 66.433594 40.210938 70.851562 38.101562 73.007812 C 35.992188 75.164062 33.015625 76.824219 34.464844 77.648438 C 35.917969 78.476562 38.535156 74.597656 40.917969 76.148438 C 43.304688 77.699219 47.335938 83.929688 51.117188 80.710938 C 54.894531 77.496094 55.59375 73.769531 55.59375 73.769531 L 49.5625 67.835938 C 49.5625 67.835938 45.90625 61.636719 49.53125 62.113281 Z M 49.53125 62.113281 "/>
<path style=" stroke:none;fill-rule:nonzero;fill:rgb(24.705882%,23.921569%,33.72549%);fill-opacity:1;" d="M 132.691406 1.90625 L 116.253906 1.90625 C 115.839844 1.90625 115.5 1.570312 115.5 1.15625 C 115.5 0.746094 115.839844 0.410156 116.253906 0.410156 L 132.691406 0.410156 C 133.105469 0.410156 133.441406 0.746094 133.441406 1.15625 C 133.441406 1.570312 133.105469 1.90625 132.691406 1.90625 Z M 132.691406 1.90625 "/>
<path style=" stroke:none;fill-rule:nonzero;fill:rgb(24.705882%,23.921569%,33.72549%);fill-opacity:1;" d="M 141.511719 9.882812 L 107.433594 9.882812 C 107.019531 9.882812 106.679688 9.546875 106.679688 9.136719 C 106.679688 8.722656 107.019531 8.386719 107.433594 8.386719 L 141.511719 8.386719 C 141.925781 8.386719 142.261719 8.722656 142.261719 9.136719 C 142.261719 9.546875 141.925781 9.882812 141.511719 9.882812 Z M 141.511719 9.882812 "/>
</g>
</svg>
