<?xml version="1.0" encoding="UTF-8"?>
<svg xmlns="http://www.w3.org/2000/svg" xmlns:xlink="http://www.w3.org/1999/xlink" width="213px" height="195px" viewBox="0 0 212 195" version="1.1">
<g id="surface1">
<path style=" stroke:none;fill-rule:nonzero;fill:rgb(94.117647%,94.117647%,94.117647%);fill-opacity:1;" d="M 14.792969 173.550781 C 11.320312 175.949219 7.769531 178.421875 5.363281 181.894531 C 2.960938 185.367188 1.910156 190.105469 3.84375 193.863281 L 3.792969 194.097656 C 6.769531 195.144531 10.078125 194.5625 12.519531 192.554688 C 15.578125 189.984375 16.535156 185.746094 17.316406 181.820312 L 19.625 170.21875 Z M 14.792969 173.550781 "/>
<path style=" stroke:none;fill-rule:nonzero;fill:rgb(94.117647%,94.117647%,94.117647%);fill-opacity:1;" d="M 18.136719 185.253906 C 15.820312 185.765625 13.449219 186.304688 11.460938 187.605469 C 9.476562 188.90625 7.929688 191.15625 8.144531 193.523438 L 8.066406 193.636719 C 9.398438 194.8125 11.246094 195.210938 12.945312 194.683594 C 15.082031 193.988281 16.472656 191.980469 17.707031 190.101562 L 21.359375 184.539062 Z M 18.136719 185.253906 "/>
<path style=" stroke:none;fill-rule:nonzero;fill:rgb(79.215686%,79.215686%,79.215686%);fill-opacity:1;" d="M 211.542969 10.359375 L 13.734375 10.359375 C 13.578125 10.359375 13.449219 10.230469 13.449219 10.074219 C 13.449219 9.914062 13.578125 9.785156 13.734375 9.785156 L 211.542969 9.785156 C 211.699219 9.785156 211.828125 9.914062 211.828125 10.074219 C 211.828125 10.230469 211.699219 10.359375 211.542969 10.359375 Z M 211.542969 10.359375 "/>
<path style=" stroke:none;fill-rule:nonzero;fill:rgb(24.705882%,23.921569%,33.72549%);fill-opacity:1;" d="M 23.355469 3.164062 C 23.355469 4.914062 21.941406 6.332031 20.199219 6.332031 C 18.453125 6.332031 17.039062 4.914062 17.039062 3.164062 C 17.039062 1.417969 18.453125 0 20.199219 0 C 21.941406 0 23.355469 1.417969 23.355469 3.164062 Z M 23.355469 3.164062 "/>
<path style=" stroke:none;fill-rule:nonzero;fill:rgb(24.705882%,23.921569%,33.72549%);fill-opacity:1;" d="M 34.265625 3.164062 C 34.265625 4.914062 32.851562 6.332031 31.105469 6.332031 C 29.363281 6.332031 27.949219 4.914062 27.949219 3.164062 C 27.949219 1.417969 29.363281 0 31.105469 0 C 32.851562 0 34.265625 1.417969 34.265625 3.164062 Z M 34.265625 3.164062 "/>
<path style=" stroke:none;fill-rule:nonzero;fill:rgb(24.705882%,23.921569%,33.72549%);fill-opacity:1;" d="M 45.175781 3.164062 C 45.175781 4.914062 43.761719 6.332031 42.015625 6.332031 C 40.273438 6.332031 38.859375 4.914062 38.859375 3.164062 C 38.859375 1.417969 40.273438 0 42.015625 0 C 43.761719 0 45.175781 1.417969 45.175781 3.164062 Z M 45.175781 3.164062 "/>
<path style=" stroke:none;fill-rule:nonzero;fill:rgb(24.705882%,23.921569%,33.72549%);fill-opacity:1;" d="M 205.003906 1.9375 L 197.253906 1.9375 C 196.9375 1.9375 196.679688 1.679688 196.679688 1.359375 C 196.679688 1.042969 196.9375 0.785156 197.253906 0.785156 L 205.003906 0.785156 C 205.324219 0.785156 205.578125 1.042969 205.578125 1.359375 C 205.578125 1.679688 205.324219 1.9375 205.003906 1.9375 Z M 205.003906 1.9375 "/>
<path style=" stroke:none;fill-rule:nonzero;fill:rgb(24.705882%,23.921569%,33.72549%);fill-opacity:1;" d="M 205.003906 4.09375 L 197.253906 4.09375 C 196.9375 4.09375 196.679688 3.835938 196.679688 3.519531 C 196.679688 3.203125 196.9375 2.945312 197.253906 2.945312 L 205.003906 2.945312 C 205.324219 2.945312 205.578125 3.203125 205.578125 3.519531 C 205.578125 3.835938 205.324219 4.09375 205.003906 4.09375 Z M 205.003906 4.09375 "/>
<path style=" stroke:none;fill-rule:nonzero;fill:rgb(24.705882%,23.921569%,33.72549%);fill-opacity:1;" d="M 205.003906 6.253906 L 197.253906 6.253906 C 196.9375 6.253906 196.679688 5.996094 196.679688 5.675781 C 196.679688 5.359375 196.9375 5.101562 197.253906 5.101562 L 205.003906 5.101562 C 205.320312 5.101562 205.578125 5.359375 205.578125 5.675781 C 205.578125 5.996094 205.320312 6.25 205.003906 6.253906 Z M 205.003906 6.253906 "/>
<path style=" stroke:none;fill-rule:nonzero;fill:rgb(94.117647%,94.117647%,94.117647%);fill-opacity:1;" d="M 16.960938 22.699219 L 148.160156 22.699219 L 148.160156 101.550781 L 16.960938 101.550781 Z M 16.960938 22.699219 "/>
<path style=" stroke:none;fill-rule:nonzero;fill:rgb(94.117647%,94.117647%,94.117647%);fill-opacity:1;" d="M 164.238281 22.699219 L 205.578125 22.699219 L 205.578125 47.546875 L 164.238281 47.546875 Z M 164.238281 22.699219 "/>
<path style=" stroke:none;fill-rule:nonzero;fill:rgb(89.411765%,89.411765%,89.411765%);fill-opacity:1;" d="M 197.332031 58.960938 L 172.734375 58.960938 C 172.09375 58.960938 171.574219 58.441406 171.574219 57.800781 C 171.574219 57.15625 172.09375 56.636719 172.734375 56.636719 L 197.332031 56.636719 C 197.972656 56.636719 198.492188 57.15625 198.492188 57.800781 C 198.492188 58.441406 197.972656 58.960938 197.332031 58.960938 Z M 197.332031 58.960938 "/>
<path style=" stroke:none;fill-rule:nonzero;fill:rgb(89.411765%,89.411765%,89.411765%);fill-opacity:1;" d="M 193.367188 54.984375 L 176.699219 54.984375 C 176.058594 54.984375 175.542969 54.464844 175.542969 53.824219 C 175.542969 53.183594 176.058594 52.664062 176.699219 52.664062 L 193.367188 52.664062 C 194.003906 52.664062 194.523438 53.183594 194.523438 53.824219 C 194.523438 54.464844 194.003906 54.984375 193.367188 54.984375 Z M 193.367188 54.984375 "/>
<path style=" stroke:none;fill-rule:nonzero;fill:rgb(94.117647%,94.117647%,94.117647%);fill-opacity:1;" d="M 164.238281 67.882812 L 205.578125 67.882812 L 205.578125 92.726562 L 164.238281 92.726562 Z M 164.238281 67.882812 "/>
<path style=" stroke:none;fill-rule:nonzero;fill:rgb(89.411765%,89.411765%,89.411765%);fill-opacity:1;" d="M 197.332031 104.140625 L 172.734375 104.140625 C 172.09375 104.140625 171.574219 103.621094 171.574219 102.980469 C 171.574219 102.339844 172.09375 101.820312 172.734375 101.820312 L 197.332031 101.820312 C 197.972656 101.820312 198.492188 102.339844 198.492188 102.980469 C 198.492188 103.621094 197.972656 104.140625 197.332031 104.140625 Z M 197.332031 104.140625 "/>
<path style=" stroke:none;fill-rule:nonzero;fill:rgb(89.411765%,89.411765%,89.411765%);fill-opacity:1;" d="M 193.367188 100.167969 L 176.699219 100.167969 C 176.058594 100.167969 175.542969 99.648438 175.542969 99.003906 C 175.542969 98.363281 176.058594 97.84375 176.699219 97.84375 L 193.367188 97.84375 C 194.003906 97.84375 194.523438 98.363281 194.523438 99.003906 C 194.523438 99.644531 194.003906 100.164062 193.367188 100.167969 Z M 193.367188 100.167969 "/>
<path style=" stroke:none;fill-rule:nonzero;fill:rgb(61.960784%,38.039216%,41.568627%);fill-opacity:1;" d="M 94.632812 55.304688 C 94.632812 60.726562 90.246094 65.121094 84.839844 65.121094 C 79.433594 65.121094 75.050781 60.726562 75.050781 55.304688 C 75.050781 49.886719 79.433594 45.492188 84.839844 45.492188 C 90.246094 45.492188 94.632812 49.886719 94.632812 55.304688 Z M 94.632812 55.304688 "/>
<path style=" stroke:none;fill-rule:nonzero;fill:rgb(42.352941%,38.823529%,100%);fill-opacity:1;" d="M 101.335938 101.550781 L 76.789062 101.550781 L 78.164062 70.433594 L 78.335938 70.257812 L 80.773438 67.675781 L 88.523438 67.675781 L 91.402344 70.46875 L 91.628906 70.691406 L 97.75 76.570312 Z M 101.335938 101.550781 "/>
<path style=" stroke:none;fill-rule:nonzero;fill:rgb(18.431373%,18.039216%,25.490196%);fill-opacity:1;" d="M 83.582031 101.550781 L 64.925781 101.550781 C 64.800781 89.644531 64.703125 80.660156 64.703125 80.660156 L 65.65625 80.078125 L 65.664062 80.074219 L 76.128906 73.707031 L 78.324219 70.128906 L 78.335938 70.257812 L 78.980469 77.796875 C 78.980469 77.796875 82.492188 89.167969 83.582031 101.550781 Z M 83.582031 101.550781 "/>
<path style=" stroke:none;fill-rule:nonzero;fill:rgb(18.431373%,18.039216%,25.490196%);fill-opacity:1;" d="M 108.96875 101.550781 L 92.367188 101.550781 C 91.480469 97.519531 91.019531 93.675781 91.21875 90.472656 C 92.035156 77.386719 90.15625 70.128906 90.96875 70.128906 L 91.402344 70.46875 L 96.523438 74.523438 L 103.265625 77 L 107.945312 78.722656 L 108.761719 79.023438 L 108.761719 79.417969 C 108.761719 81.394531 108.785156 90.589844 108.96875 101.550781 Z M 108.96875 101.550781 "/>
<path style=" stroke:none;fill-rule:nonzero;fill:rgb(18.431373%,18.039216%,25.490196%);fill-opacity:1;" d="M 75.578125 58.375 C 75.578125 58.375 76.410156 56.910156 76.214844 52.019531 C 76.023438 47.128906 83.453125 49.894531 89.664062 49.429688 C 95.875 48.960938 94.558594 57.59375 94.558594 57.59375 C 94.558594 57.59375 95.007812 57.082031 95.964844 52.914062 C 96.925781 48.75 94.75 44.597656 94.75 44.597656 C 94.105469 40.21875 90.648438 41.621094 90.648438 41.621094 C 92.316406 42.269531 91.996094 43.660156 91.996094 43.660156 C 90.585938 41.183594 87.128906 42.585938 87.128906 42.585938 C 82.519531 39.6875 77.847656 43.503906 77.847656 43.503906 C 72.277344 44.773438 75.542969 49.210938 75.542969 49.210938 C 69.941406 52.046875 75.578125 58.375 75.578125 58.375 Z M 75.578125 58.375 "/>
<path style=" stroke:none;fill-rule:nonzero;fill:rgb(18.431373%,18.039216%,25.490196%);fill-opacity:1;" d="M 59.519531 101.550781 C 59.996094 92 60.359375 84.507812 60.214844 83.929688 C 59.816406 82.320312 65.484375 80.140625 65.65625 80.078125 L 65.660156 80.074219 L 65.664062 80.074219 L 66.746094 80.660156 L 67.539062 101.550781 Z M 59.519531 101.550781 "/>
<path style=" stroke:none;fill-rule:nonzero;fill:rgb(18.431373%,18.039216%,25.490196%);fill-opacity:1;" d="M 112.875 101.550781 L 104.449219 101.550781 L 102.035156 77.675781 L 103.03125 76.945312 C 103.03125 76.945312 103.117188 76.96875 103.265625 77 C 104.039062 77.195312 106.53125 77.847656 107.945312 78.722656 C 108.257812 78.898438 108.535156 79.136719 108.761719 79.417969 C 108.898438 79.582031 108.96875 79.792969 108.953125 80.007812 C 108.882812 80.683594 110.71875 90.246094 112.875 101.550781 Z M 112.875 101.550781 "/>
<path style=" stroke:none;fill-rule:nonzero;fill:rgb(79.215686%,79.215686%,79.215686%);fill-opacity:1;" d="M 127.058594 111.191406 L 38.0625 111.191406 C 37.347656 111.195312 36.773438 111.773438 36.773438 112.488281 C 36.773438 113.203125 37.347656 113.78125 38.0625 113.78125 L 127.058594 113.78125 C 127.523438 113.785156 127.949219 113.539062 128.179688 113.136719 C 128.410156 112.734375 128.410156 112.242188 128.179688 111.839844 C 127.949219 111.4375 127.523438 111.191406 127.058594 111.191406 Z M 127.058594 111.191406 "/>
<path style=" stroke:none;fill-rule:nonzero;fill:rgb(24.705882%,23.921569%,33.72549%);fill-opacity:1;" d="M 102.945312 111.191406 L 102.945312 113.78125 L 38.0625 113.78125 C 37.347656 113.78125 36.773438 113.203125 36.773438 112.488281 C 36.773438 111.773438 37.347656 111.195312 38.0625 111.191406 Z M 102.945312 111.191406 "/>
<path style=" stroke:none;fill-rule:nonzero;fill:rgb(24.705882%,23.921569%,33.72549%);fill-opacity:1;" d="M 105.527344 112.488281 C 105.527344 113.917969 104.371094 115.078125 102.945312 115.078125 C 101.515625 115.078125 100.359375 113.917969 100.359375 112.488281 C 100.359375 111.058594 101.515625 109.898438 102.945312 109.898438 C 104.371094 109.898438 105.527344 111.058594 105.527344 112.488281 Z M 105.527344 112.488281 "/>
<path style=" stroke:none;fill-rule:nonzero;fill:rgb(42.352941%,38.823529%,100%);fill-opacity:1;" d="M 82.5625 134.070312 C 79.613281 134.070312 77.226562 131.679688 77.226562 128.726562 C 77.226562 125.773438 79.613281 123.378906 82.5625 123.378906 C 85.507812 123.378906 87.894531 125.773438 87.894531 128.726562 C 87.890625 131.675781 85.503906 134.066406 82.5625 134.070312 Z M 82.5625 123.789062 C 79.839844 123.789062 77.636719 126 77.636719 128.726562 C 77.636719 131.449219 79.839844 133.660156 82.5625 133.660156 C 85.28125 133.660156 87.484375 131.449219 87.484375 128.726562 C 87.480469 126 85.277344 123.792969 82.5625 123.789062 Z M 82.5625 123.789062 "/>
<path style=" stroke:none;fill-rule:nonzero;fill:rgb(42.352941%,38.823529%,100%);fill-opacity:1;" d="M 81.855469 131.605469 C 81.742188 131.605469 81.652344 131.511719 81.652344 131.398438 L 81.652344 126.050781 C 81.652344 125.976562 81.691406 125.910156 81.753906 125.871094 C 81.816406 125.835938 81.894531 125.835938 81.960938 125.871094 C 82.023438 125.910156 82.0625 125.976562 82.0625 126.050781 L 82.0625 131.398438 C 82.0625 131.511719 81.96875 131.605469 81.855469 131.605469 Z M 81.855469 131.605469 "/>
<path style=" stroke:none;fill-rule:nonzero;fill:rgb(42.352941%,38.823529%,100%);fill-opacity:1;" d="M 83.265625 131.605469 C 83.152344 131.605469 83.058594 131.511719 83.058594 131.398438 L 83.058594 126.050781 C 83.058594 125.976562 83.097656 125.910156 83.164062 125.871094 C 83.226562 125.835938 83.304688 125.835938 83.367188 125.871094 C 83.433594 125.910156 83.472656 125.976562 83.46875 126.050781 L 83.46875 131.398438 C 83.46875 131.511719 83.378906 131.605469 83.265625 131.605469 Z M 83.265625 131.605469 "/>
<path style=" stroke:none;fill-rule:nonzero;fill:rgb(24.705882%,23.921569%,33.72549%);fill-opacity:1;" d="M 58.132812 128.726562 C 58.132812 125.773438 60.519531 123.378906 63.464844 123.378906 C 66.410156 123.378906 68.796875 125.773438 68.796875 128.726562 C 68.796875 131.679688 66.410156 134.070312 63.464844 134.070312 C 60.519531 134.066406 58.132812 131.675781 58.132812 128.726562 Z M 58.542969 128.726562 C 58.542969 131.449219 60.746094 133.660156 63.464844 133.660156 C 66.183594 133.660156 68.386719 131.449219 68.386719 128.726562 C 68.386719 126 66.183594 123.789062 63.464844 123.789062 C 60.746094 123.792969 58.542969 126 58.542969 128.726562 Z M 58.542969 128.726562 "/>
<path style=" stroke:none;fill-rule:nonzero;fill:rgb(24.705882%,23.921569%,33.72549%);fill-opacity:1;" d="M 65.769531 130.523438 C 65.847656 130.523438 65.914062 130.472656 65.933594 130.398438 C 65.953125 130.324219 65.921875 130.246094 65.855469 130.207031 L 63.296875 128.726562 L 65.855469 127.246094 C 65.9375 127.195312 65.964844 127.09375 65.917969 127.011719 C 65.871094 126.929688 65.765625 126.902344 65.683594 126.949219 L 62.867188 128.578125 C 62.816406 128.609375 62.785156 128.664062 62.785156 128.726562 C 62.785156 128.785156 62.816406 128.84375 62.867188 128.875 L 65.683594 130.503906 C 65.710938 130.515625 65.738281 130.523438 65.769531 130.523438 Z M 65.769531 130.523438 "/>
<path style=" stroke:none;fill-rule:nonzero;fill:rgb(24.705882%,23.921569%,33.72549%);fill-opacity:1;" d="M 61.996094 131.121094 C 62.089844 131.121094 62.164062 131.042969 62.164062 130.949219 L 62.164062 126.503906 C 62.164062 126.40625 62.089844 126.332031 61.996094 126.332031 C 61.898438 126.332031 61.824219 126.40625 61.824219 126.503906 L 61.824219 130.949219 C 61.824219 131.042969 61.898438 131.121094 61.996094 131.121094 Z M 61.996094 131.121094 "/>
<path style=" stroke:none;fill-rule:nonzero;fill:rgb(24.705882%,23.921569%,33.72549%);fill-opacity:1;" d="M 101.65625 134.070312 C 98.710938 134.070312 96.324219 131.679688 96.324219 128.726562 C 96.324219 125.773438 98.710938 123.378906 101.65625 123.378906 C 104.601562 123.378906 106.992188 125.773438 106.992188 128.726562 C 106.988281 131.675781 104.601562 134.066406 101.65625 134.070312 Z M 101.65625 123.789062 C 98.9375 123.789062 96.734375 126 96.734375 128.726562 C 96.734375 131.449219 98.9375 133.660156 101.65625 133.660156 C 104.375 133.660156 106.578125 131.449219 106.578125 128.726562 C 106.578125 126 104.375 123.792969 101.65625 123.789062 Z M 101.65625 123.789062 "/>
<path style=" stroke:none;fill-rule:nonzero;fill:rgb(24.705882%,23.921569%,33.72549%);fill-opacity:1;" d="M 99.351562 130.523438 C 99.277344 130.523438 99.207031 130.472656 99.1875 130.398438 C 99.167969 130.324219 99.199219 130.246094 99.265625 130.207031 L 101.828125 128.726562 L 99.265625 127.246094 C 99.1875 127.195312 99.160156 127.09375 99.207031 127.011719 C 99.253906 126.929688 99.355469 126.902344 99.4375 126.949219 L 102.253906 128.578125 C 102.304688 128.609375 102.339844 128.664062 102.339844 128.726562 C 102.339844 128.785156 102.304688 128.84375 102.253906 128.875 L 99.4375 130.503906 C 99.414062 130.515625 99.382812 130.523438 99.351562 130.523438 Z M 99.351562 130.523438 "/>
<path style=" stroke:none;fill-rule:nonzero;fill:rgb(24.705882%,23.921569%,33.72549%);fill-opacity:1;" d="M 103.128906 131.121094 C 103.03125 131.121094 102.957031 131.042969 102.957031 130.949219 L 102.957031 126.503906 C 102.957031 126.40625 103.03125 126.332031 103.128906 126.332031 C 103.222656 126.332031 103.296875 126.40625 103.296875 126.503906 L 103.296875 130.949219 C 103.296875 131.042969 103.222656 131.121094 103.128906 131.121094 Z M 103.128906 131.121094 "/>
<path style=" stroke:none;fill-rule:nonzero;fill:rgb(100%,71.372549%,71.372549%);fill-opacity:1;" d="M 31.25 132.753906 C 30.679688 132.179688 30.390625 131.382812 30.460938 130.578125 C 30.535156 129.769531 30.960938 129.039062 31.621094 128.574219 L 29 119.214844 L 33.800781 120.75 L 35.554688 129.40625 C 36.273438 130.601562 35.984375 132.144531 34.886719 132.996094 C 33.789062 133.851562 32.226562 133.746094 31.25 132.753906 Z M 31.25 132.753906 "/>
<path style=" stroke:none;fill-rule:nonzero;fill:rgb(42.352941%,38.823529%,100%);fill-opacity:1;" d="M 29.964844 86.117188 L 28.972656 85.078125 C 28.972656 85.078125 25.894531 87.195312 26.546875 93.761719 C 27.027344 98.609375 25.507812 100.664062 25.679688 114.757812 L 29.964844 127.660156 L 34.925781 125.054688 L 31.335938 109.132812 Z M 29.964844 86.117188 "/>
<path style=" stroke:none;fill-rule:nonzero;fill:rgb(100%,71.372549%,71.372549%);fill-opacity:1;" d="M 33.6875 190.855469 L 37.242188 190.855469 L 38.933594 177.105469 L 33.6875 177.109375 Z M 33.6875 190.855469 "/>
<path style=" stroke:none;fill-rule:nonzero;fill:rgb(18.431373%,18.039216%,25.490196%);fill-opacity:1;" d="M 32.78125 189.691406 L 39.78125 189.691406 C 42.246094 189.691406 44.246094 191.695312 44.246094 194.167969 L 44.246094 194.3125 L 32.78125 194.3125 Z M 32.78125 189.691406 "/>
<path style=" stroke:none;fill-rule:nonzero;fill:rgb(100%,71.372549%,71.372549%);fill-opacity:1;" d="M 44.058594 189.59375 L 47.585938 190.027344 L 50.9375 176.585938 L 45.726562 175.949219 Z M 44.058594 189.59375 "/>
<path style=" stroke:none;fill-rule:nonzero;fill:rgb(18.431373%,18.039216%,25.490196%);fill-opacity:1;" d="M 43.296875 188.328125 L 50.25 189.183594 C 52.695312 189.484375 54.4375 191.714844 54.136719 194.167969 L 54.117188 194.3125 L 42.738281 192.914062 Z M 43.296875 188.328125 "/>
<path style=" stroke:none;fill-rule:nonzero;fill:rgb(18.431373%,18.039216%,25.490196%);fill-opacity:1;" d="M 31.84375 120.363281 C 31.84375 120.363281 24.992188 125.054688 28.417969 137.757812 L 33.050781 187.0625 L 38.554688 187.023438 L 40.882812 162.695312 L 42.46875 145.566406 L 47.761719 163.277344 L 43.40625 185.011719 L 49.832031 185.691406 L 57.53125 160.417969 L 53.816406 124.433594 Z M 31.84375 120.363281 "/>
<path style=" stroke:none;fill-rule:nonzero;fill:rgb(42.352941%,38.823529%,100%);fill-opacity:1;" d="M 48.371094 83.746094 L 44.890625 80.9375 L 35.652344 80.558594 L 28.972656 85.078125 C 28.972656 85.078125 28.28125 101.179688 32.800781 115.519531 L 30.433594 121.511719 L 54.128906 124.492188 Z M 48.371094 83.746094 "/>
<path style=" stroke:none;fill-rule:nonzero;fill:rgb(100%,71.372549%,71.372549%);fill-opacity:1;" d="M 48.828125 69.167969 C 48.828125 73.554688 45.28125 77.113281 40.902344 77.113281 C 36.527344 77.113281 32.980469 73.554688 32.980469 69.167969 C 32.980469 64.785156 36.527344 61.226562 40.902344 61.226562 C 45.28125 61.226562 48.828125 64.785156 48.828125 69.167969 Z M 48.828125 69.167969 "/>
<path style=" stroke:none;fill-rule:nonzero;fill:rgb(18.431373%,18.039216%,25.490196%);fill-opacity:1;" d="M 42.980469 59.351562 L 41.222656 59.351562 C 38.734375 58.609375 36.042969 59.085938 33.960938 60.640625 C 31.878906 62.195312 30.652344 64.644531 30.652344 67.25 L 27.910156 76.320312 C 27.75 76.847656 27.851562 77.425781 28.179688 77.871094 C 28.507812 78.316406 29.027344 78.578125 29.582031 78.578125 L 30.921875 78.578125 C 31.480469 77.777344 31.726562 76.796875 31.605469 75.828125 C 31.855469 76.433594 32.03125 77.070312 32.125 77.71875 C 32.15625 78.003906 32.152344 78.292969 32.109375 78.578125 L 43.753906 78.578125 C 43.828125 77.433594 43.449219 76.304688 42.699219 75.4375 C 43.636719 76.375 44.453125 77.433594 45.128906 78.578125 L 45.347656 78.578125 C 46.308594 78.578125 47.09375 77.792969 47.09375 76.828125 L 47.09375 67.933594 L 51.542969 67.933594 C 51.542969 63.195312 47.710938 59.351562 42.980469 59.351562 Z M 42.980469 59.351562 "/>
<path style=" stroke:none;fill-rule:nonzero;fill:rgb(100%,71.372549%,71.372549%);fill-opacity:1;" d="M 51.800781 132.066406 C 51.226562 131.496094 50.941406 130.699219 51.011719 129.890625 C 51.085938 129.085938 51.507812 128.351562 52.171875 127.890625 L 49.546875 118.527344 L 54.347656 120.066406 L 56.105469 128.71875 C 56.824219 129.914062 56.535156 131.457031 55.4375 132.3125 C 54.335938 133.164062 52.773438 133.0625 51.800781 132.066406 Z M 51.800781 132.066406 "/>
<path style=" stroke:none;fill-rule:nonzero;fill:rgb(42.352941%,38.823529%,100%);fill-opacity:1;" d="M 45.367188 85.523438 L 48.371094 83.746094 C 48.371094 83.746094 53.097656 82.914062 53.601562 89.222656 C 54.105469 95.53125 54.832031 111.910156 54.832031 111.910156 L 56.304688 125.714844 L 50.835938 126.882812 L 44.550781 108.003906 Z M 45.367188 85.523438 "/>
<path style=" stroke:none;fill-rule:nonzero;fill:rgb(79.215686%,79.215686%,79.215686%);fill-opacity:1;" d="M 72.949219 194.960938 L 0.34375 194.960938 C 0.152344 194.960938 0 194.804688 0 194.617188 C 0 194.425781 0.152344 194.273438 0.34375 194.273438 L 72.949219 194.273438 C 73.140625 194.273438 73.292969 194.425781 73.292969 194.617188 C 73.292969 194.804688 73.140625 194.960938 72.949219 194.960938 Z M 72.949219 194.960938 "/>
</g>
</svg>
