<?xml version="1.0" encoding="UTF-8"?>
<svg xmlns="http://www.w3.org/2000/svg" xmlns:xlink="http://www.w3.org/1999/xlink" width="468px" height="360px" viewBox="0 0 468 360" version="1.1">
<defs>
<filter id="alpha" filterUnits="objectBoundingBox" x="0%" y="0%" width="100%" height="100%">
  <feColorMatrix type="matrix" in="SourceGraphic" values="0 0 0 0 1 0 0 0 0 1 0 0 0 0 1 0 0 0 1 0"/>
</filter>
<mask id="mask0">
  <g filter="url(#alpha)">
<rect x="0" y="0" width="468" height="360" style="fill:rgb(0%,0%,0%);fill-opacity:0.2;stroke:none;"/>
  </g>
</mask>
<clipPath id="clip1">
  <rect x="0" y="0" width="468" height="361"/>
</clipPath>
<g id="surface5" clip-path="url(#clip1)">
<path style=" stroke:none;fill-rule:nonzero;fill:rgb(13.72549%,12.156863%,12.54902%);fill-opacity:1;" d="M 220.214844 55.148438 C 224.585938 57.972656 226.003906 64.066406 223.375 68.757812 C 220.746094 73.453125 215.074219 74.972656 210.699219 72.152344 C 215.121094 73.207031 219.605469 70.664062 221.285156 66.148438 C 222.960938 61.628906 221.339844 56.46875 217.457031 53.96875 C 218.429688 54.199219 219.359375 54.597656 220.214844 55.148438 Z M 220.214844 55.148438 "/>
</g>
<mask id="mask1">
  <g filter="url(#alpha)">
<rect x="0" y="0" width="468" height="360" style="fill:rgb(0%,0%,0%);fill-opacity:0.2;stroke:none;"/>
  </g>
</mask>
<clipPath id="clip2">
  <rect x="0" y="0" width="468" height="361"/>
</clipPath>
<g id="surface8" clip-path="url(#clip2)">
<path style=" stroke:none;fill-rule:nonzero;fill:rgb(13.72549%,12.156863%,12.54902%);fill-opacity:1;" d="M 242.738281 68.730469 C 239.480469 84.054688 214.847656 101.105469 207.820312 129.847656 C 206.414062 128.425781 205.109375 126.890625 203.917969 125.261719 C 211.816406 98.242188 234.914062 81.824219 238.066406 67.015625 C 240.882812 53.765625 232.964844 41.171875 221.605469 35.851562 C 235.355469 39.5625 245.929688 53.726562 242.738281 68.730469 Z M 242.738281 68.730469 "/>
</g>
<mask id="mask2">
  <g filter="url(#alpha)">
<rect x="0" y="0" width="468" height="360" style="fill:rgb(0%,0%,0%);fill-opacity:0.2;stroke:none;"/>
  </g>
</mask>
<clipPath id="clip3">
  <rect x="0" y="0" width="468" height="361"/>
</clipPath>
<g id="surface11" clip-path="url(#clip3)">
<path style=" stroke:none;fill-rule:nonzero;fill:rgb(13.72549%,12.156863%,12.54902%);fill-opacity:1;" d="M 133.042969 88.847656 C 136.324219 90.96875 137.386719 95.542969 135.414062 99.070312 C 133.441406 102.59375 129.179688 103.734375 125.898438 101.617188 C 129.21875 102.410156 132.582031 100.5 133.84375 97.105469 C 135.105469 93.714844 133.886719 89.839844 130.96875 87.960938 C 131.699219 88.136719 132.398438 88.433594 133.042969 88.847656 Z M 133.042969 88.847656 "/>
</g>
<mask id="mask3">
  <g filter="url(#alpha)">
<rect x="0" y="0" width="468" height="360" style="fill:rgb(0%,0%,0%);fill-opacity:0.2;stroke:none;"/>
  </g>
</mask>
<clipPath id="clip4">
  <rect x="0" y="0" width="468" height="361"/>
</clipPath>
<g id="surface14" clip-path="url(#clip4)">
<path style=" stroke:none;fill-rule:nonzero;fill:rgb(13.72549%,12.156863%,12.54902%);fill-opacity:1;" d="M 149.957031 99.046875 C 147.507812 110.554688 129.011719 123.359375 123.730469 144.945312 C 122.675781 143.875 121.699219 142.722656 120.800781 141.5 C 126.734375 121.207031 144.082031 108.878906 146.445312 97.761719 C 148.5625 87.808594 142.617188 78.351562 134.085938 74.355469 C 144.414062 77.144531 152.355469 87.78125 149.957031 99.046875 Z M 149.957031 99.046875 "/>
</g>
<mask id="mask4">
  <g filter="url(#alpha)">
<rect x="0" y="0" width="468" height="360" style="fill:rgb(0%,0%,0%);fill-opacity:0.2;stroke:none;"/>
  </g>
</mask>
<clipPath id="clip5">
  <rect x="0" y="0" width="468" height="361"/>
</clipPath>
<g id="surface17" clip-path="url(#clip5)">
<path style=" stroke:none;fill-rule:nonzero;fill:rgb(13.72549%,12.156863%,12.54902%);fill-opacity:1;" d="M 302.445312 80.90625 C 304.484375 83.195312 304.410156 86.824219 302.28125 89.015625 C 300.152344 91.207031 296.773438 91.132812 294.730469 88.847656 C 297.050781 90.15625 299.914062 89.46875 301.488281 87.21875 C 303.0625 84.972656 302.886719 81.828125 301.074219 79.796875 C 301.582031 80.085938 302.046875 80.460938 302.445312 80.90625 Z M 302.445312 80.90625 "/>
</g>
<mask id="mask5">
  <g filter="url(#alpha)">
<rect x="0" y="0" width="468" height="360" style="fill:rgb(0%,0%,0%);fill-opacity:0.2;stroke:none;"/>
  </g>
</mask>
<clipPath id="clip6">
  <rect x="0" y="0" width="468" height="361"/>
</clipPath>
<g id="surface20" clip-path="url(#clip6)">
<path style=" stroke:none;fill-rule:nonzero;fill:rgb(13.72549%,12.156863%,12.54902%);fill-opacity:1;" d="M 313.097656 92.160156 C 309.113281 100.183594 292.953125 105.683594 284.964844 120.582031 C 284.382812 119.558594 283.871094 118.492188 283.4375 117.386719 C 291.664062 103.589844 306.878906 98.191406 310.730469 90.441406 C 314.179688 83.503906 311.539062 75.183594 305.949219 70.363281 C 313.101562 74.675781 317.003906 84.304688 313.097656 92.160156 Z M 313.097656 92.160156 "/>
</g>
<mask id="mask6">
  <g filter="url(#alpha)">
<rect x="0" y="0" width="468" height="360" style="fill:rgb(0%,0%,0%);fill-opacity:0.2;stroke:none;"/>
  </g>
</mask>
<clipPath id="clip7">
  <rect x="0" y="0" width="468" height="361"/>
</clipPath>
<g id="surface23" clip-path="url(#clip7)">
<path style=" stroke:none;fill-rule:nonzero;fill:rgb(0%,0%,0%);fill-opacity:1;" d="M 348.835938 129.355469 L 338.660156 142.011719 L 321.851562 136.679688 L 340.175781 145.75 Z M 348.835938 129.355469 "/>
</g>
</defs>
<g id="surface1">
<path style=" stroke:none;fill-rule:nonzero;fill:rgb(94.901961%,94.901961%,94.901961%);fill-opacity:1;" d="M 378.839844 229.230469 C 379.695312 229.3125 380.511719 228.816406 380.878906 227.980469 C 381.25 227.144531 381.09375 226.152344 380.488281 225.492188 C 380.445312 225.269531 380.414062 225.109375 380.375 224.886719 C 380.394531 224.839844 380.414062 224.792969 380.4375 224.746094 C 381.394531 222.597656 383.460938 221.277344 385.675781 221.398438 C 387.890625 221.515625 389.824219 223.050781 390.578125 225.292969 C 392.050781 229.664062 393.976562 234.070312 394.296875 238.628906 C 394.441406 240.648438 394.253906 242.675781 393.753906 244.625 C 398.042969 235.691406 400.496094 225.875 400.945312 215.835938 C 401.054688 213.316406 401.035156 210.792969 400.882812 208.277344 C 400.753906 206.210938 400.542969 204.160156 400.25 202.117188 C 398.636719 191.035156 394.601562 180.523438 388.46875 171.441406 C 385.398438 169.4375 382.972656 166.46875 381.519531 162.941406 C 380.992188 161.671875 380.640625 160.328125 380.472656 158.949219 C 380.824219 159.019531 381.183594 159.066406 381.539062 159.109375 C 381.648438 159.121094 381.765625 159.132812 381.875 159.144531 L 381.917969 159.148438 C 382.714844 159.226562 383.480469 158.796875 383.871094 158.050781 C 384.265625 157.300781 384.210938 156.375 383.738281 155.683594 C 383.59375 155.472656 383.449219 155.261719 383.304688 155.054688 C 383.085938 154.726562 382.859375 154.410156 382.640625 154.085938 C 382.613281 154.054688 382.589844 154.023438 382.566406 153.988281 C 382.316406 153.617188 382.0625 153.253906 381.808594 152.882812 C 382.335938 152.09375 383.023438 151.441406 383.820312 150.984375 C 386.578125 149.429688 390.234375 150.785156 392.0625 153.492188 C 393.894531 156.195312 394.101562 159.875 393.285156 163.101562 C 392.5 165.84375 391.289062 168.421875 389.695312 170.722656 C 389.832031 170.929688 389.976562 171.132812 390.113281 171.339844 C 392.617188 175.152344 394.769531 179.214844 396.53125 183.476562 C 396.261719 178.789062 397.03125 174.097656 398.777344 169.792969 C 400.53125 165.785156 403.636719 162.492188 406.394531 159.089844 C 409.707031 155.003906 416.039062 157.175781 416.355469 162.582031 C 416.359375 162.632812 416.359375 162.6875 416.363281 162.738281 C 415.96875 162.953125 415.578125 163.183594 415.195312 163.425781 C 414.214844 164.0625 413.695312 165.28125 413.890625 166.492188 C 414.085938 167.707031 414.957031 168.667969 416.082031 168.910156 L 416.136719 168.921875 C 415.933594 170.414062 415.625 171.882812 415.214844 173.324219 C 412.824219 181.441406 407.390625 188.125 400.21875 191.761719 C 399.988281 191.875 399.761719 191.992188 399.527344 192.097656 C 401.222656 198.144531 402.183594 204.402344 402.375 210.714844 C 402.480469 214.4375 402.300781 218.164062 401.847656 221.855469 L 401.871094 221.726562 C 402.792969 217.640625 405.003906 214.023438 408.125 211.484375 C 412.757812 207.773438 419.125 206.636719 424.074219 203.714844 C 425.152344 203.046875 426.488281 203.109375 427.507812 203.878906 C 428.523438 204.644531 429.035156 205.976562 428.8125 207.289062 C 428.804688 207.335938 428.796875 207.378906 428.789062 207.425781 C 428.054688 207.703125 427.339844 208.03125 426.648438 208.402344 C 426.25 208.617188 425.863281 208.847656 425.480469 209.09375 C 424.5 209.726562 423.980469 210.945312 424.175781 212.160156 C 424.371094 213.371094 425.242188 214.332031 426.363281 214.574219 L 426.421875 214.589844 C 426.460938 214.597656 426.496094 214.605469 426.535156 214.613281 C 425.175781 217.695312 423.328125 220.503906 421.078125 222.914062 C 415.46875 228.800781 407.84375 231.949219 400.003906 231.609375 L 400 231.609375 C 398.734375 236.46875 397 241.175781 394.828125 245.648438 L 378.570312 244.835938 C 378.519531 244.640625 378.476562 244.4375 378.433594 244.242188 C 379.933594 244.417969 381.449219 244.394531 382.945312 244.175781 C 381.808594 242.527344 380.667969 240.867188 379.53125 239.214844 C 379.507812 239.183594 379.484375 239.152344 379.460938 239.117188 C 378.882812 238.273438 378.300781 237.4375 377.726562 236.59375 L 377.726562 236.589844 C 377.800781 234.097656 378.175781 231.621094 378.839844 229.230469 Z M 378.839844 229.230469 "/>
<path style=" stroke:none;fill-rule:nonzero;fill:rgb(94.901961%,94.901961%,94.901961%);fill-opacity:1;" d="M 51.25 78.261719 C 50.398438 78.40625 49.554688 77.960938 49.140625 77.152344 C 48.722656 76.34375 48.824219 75.339844 49.386719 74.644531 C 49.417969 74.417969 49.4375 74.257812 49.46875 74.03125 C 49.445312 73.984375 49.421875 73.941406 49.398438 73.894531 C 48.316406 71.8125 46.179688 70.632812 43.976562 70.898438 C 41.769531 71.167969 39.929688 72.828125 39.308594 75.113281 C 38.089844 79.574219 36.421875 84.097656 36.359375 88.671875 C 36.335938 90.695312 36.636719 92.707031 37.25 94.617188 C 32.453125 85.988281 29.441406 76.351562 28.414062 66.363281 C 28.160156 63.855469 28.035156 61.335938 28.042969 58.8125 C 28.050781 56.746094 28.144531 54.683594 28.320312 52.625 C 29.292969 41.457031 32.714844 30.695312 38.3125 21.222656 C 41.261719 19.019531 43.511719 15.898438 44.761719 12.28125 C 45.210938 10.976562 45.488281 9.613281 45.574219 8.226562 C 45.226562 8.316406 44.871094 8.390625 44.519531 8.457031 C 44.410156 8.476562 44.292969 8.496094 44.183594 8.515625 L 44.144531 8.523438 C 43.351562 8.652344 42.566406 8.273438 42.128906 7.554688 C 41.695312 6.832031 41.695312 5.90625 42.128906 5.183594 C 42.261719 4.964844 42.390625 4.746094 42.523438 4.527344 C 42.726562 4.1875 42.933594 3.855469 43.132812 3.515625 C 43.15625 3.484375 43.179688 3.449219 43.199219 3.414062 C 43.429688 3.027344 43.660156 2.648438 43.890625 2.261719 C 43.324219 1.507812 42.597656 0.902344 41.777344 0.5 C 38.933594 -0.871094 35.363281 0.722656 33.695312 3.546875 C 32.019531 6.371094 32.023438 10.054688 33.023438 13.222656 C 33.964844 15.90625 35.324219 18.398438 37.046875 20.589844 C 36.921875 20.808594 36.789062 21.015625 36.664062 21.234375 C 34.386719 25.203125 32.472656 29.402344 30.957031 33.773438 C 30.957031 29.074219 29.917969 24.445312 27.929688 20.261719 C 25.949219 16.378906 22.660156 13.300781 19.710938 10.085938 C 16.171875 6.226562 9.976562 8.816406 9.96875 14.230469 C 9.96875 14.285156 9.96875 14.335938 9.96875 14.390625 C 10.378906 14.578125 10.78125 14.78125 11.175781 15 C 12.191406 15.570312 12.777344 16.75 12.652344 17.972656 C 12.527344 19.199219 11.714844 20.214844 10.609375 20.53125 L 10.554688 20.546875 C 10.839844 22.019531 11.234375 23.46875 11.726562 24.878906 C 14.578125 32.824219 20.386719 39.132812 27.753906 42.289062 C 27.992188 42.386719 28.226562 42.484375 28.464844 42.574219 C 27.117188 48.722656 26.523438 55.035156 26.691406 61.347656 C 26.804688 65.070312 27.195312 68.777344 27.863281 72.433594 L 27.832031 72.304688 C 26.671875 68.285156 24.261719 64.824219 21 62.496094 C 16.160156 59.097656 9.742188 58.386719 4.632812 55.800781 C 3.519531 55.203125 2.1875 55.355469 1.214844 56.1875 C 0.246094 57.023438 -0.1875 58.382812 0.109375 59.679688 C 0.121094 59.726562 0.128906 59.769531 0.140625 59.816406 C 0.886719 60.042969 1.621094 60.324219 2.332031 60.648438 C 2.742188 60.839844 3.144531 61.042969 3.539062 61.261719 C 4.554688 61.828125 5.140625 63.011719 5.015625 64.234375 C 4.890625 65.457031 4.078125 66.472656 2.972656 66.792969 L 2.914062 66.808594 C 2.875 66.820312 2.839844 66.828125 2.800781 66.839844 C 4.339844 69.824219 6.34375 72.503906 8.726562 74.761719 C 14.664062 80.269531 22.457031 82.902344 30.261719 82.042969 L 30.265625 82.042969 C 31.808594 86.808594 33.808594 91.390625 36.234375 95.714844 L 52.414062 93.824219 C 52.453125 93.625 52.484375 93.417969 52.519531 93.21875 C 51.03125 93.496094 49.519531 93.574219 48.011719 93.457031 C 49.050781 91.734375 50.089844 90 51.132812 88.277344 C 51.15625 88.246094 51.175781 88.210938 51.199219 88.175781 C 51.726562 87.292969 52.257812 86.417969 52.785156 85.539062 C 52.566406 83.050781 52.050781 80.609375 51.25 78.261719 Z M 51.25 78.261719 "/>
<path style=" stroke:none;fill-rule:nonzero;fill:rgb(62.745098%,38.039216%,41.568627%);fill-opacity:1;" d="M 274.796875 71.824219 C 276.417969 72.304688 277.757812 73.527344 278.457031 75.171875 C 279.15625 76.8125 279.144531 78.703125 278.417969 80.332031 L 287.101562 90.699219 L 282.523438 97.902344 L 270.453125 83.078125 C 267.925781 81.558594 266.859375 78.25 267.96875 75.378906 C 269.078125 72.507812 272.011719 70.980469 274.796875 71.824219 Z M 274.796875 71.824219 "/>
<path style=" stroke:none;fill-rule:nonzero;fill:rgb(80%,80%,80%);fill-opacity:1;" d="M 356.085938 97.277344 C 354.503906 94.515625 351.964844 92.542969 349.027344 91.792969 C 346.085938 91.046875 342.992188 91.585938 340.425781 93.292969 L 311.867188 112.285156 L 281.066406 84.167969 L 273.402344 91.832031 L 307.429688 139.238281 L 351.65625 114.480469 C 350.625 115.058594 357.332031 99.457031 356.085938 97.277344 Z M 356.085938 97.277344 "/>
<path style=" stroke:none;fill-rule:nonzero;fill:rgb(24.705882%,23.921569%,33.72549%);fill-opacity:1;" d="M 299.515625 160.425781 C 299.527344 224.117188 251.441406 275.753906 192.125 275.738281 C 132.816406 275.738281 84.738281 224.109375 84.738281 160.425781 C 84.726562 148.039062 86.574219 135.730469 90.214844 123.972656 C 104.859375 76.890625 145.898438 45.132812 192.125 45.109375 C 231.738281 45.097656 268.140625 68.507812 286.824219 106.015625 C 289.097656 110.558594 291.082031 115.261719 292.761719 120.089844 C 292.996094 120.761719 293.222656 121.4375 293.441406 122.113281 L 293.441406 122.121094 C 294.425781 125.105469 295.292969 128.148438 296.042969 131.242188 C 298.355469 140.773438 299.523438 150.578125 299.515625 160.425781 Z M 299.515625 160.425781 "/>
<path style=" stroke:none;fill-rule:nonzero;fill:rgb(100%,100%,100%);fill-opacity:1;" d="M 180.375 82.625 C 170.597656 76.945312 158.925781 76.433594 148.746094 81.234375 C 144.320312 83.300781 139.664062 87.007812 138.191406 93.703125 C 144.15625 89.921875 151.882812 95.898438 153.417969 105.480469 L 153.058594 105.589844 C 152.246094 112.226562 154.058594 119.453125 157.5625 123.570312 C 158.023438 119.296875 160.640625 116.386719 163.214844 114.566406 C 165.792969 112.75 168.640625 111.429688 170.605469 108.304688 C 172.9375 104.601562 173.527344 99.1875 174.453125 94.246094 C 175.378906 89.308594 177.136719 84 180.375 82.625 Z M 180.375 82.625 "/>
<path style=" stroke:none;fill-rule:nonzero;fill:rgb(100%,100%,100%);fill-opacity:1;" d="M 146.976562 139.117188 C 145.324219 141.78125 143.113281 143.453125 141.132812 145.535156 C 139.160156 147.625 137.28125 150.445312 136.886719 154.0625 C 136.636719 156.382812 137.023438 158.738281 136.96875 161.085938 C 136.917969 163.429688 136.1875 166.070312 134.703125 166.652344 C 132.359375 167.5625 130.566406 162.886719 128.15625 162.558594 C 126.242188 162.300781 124.519531 165.539062 125.074219 168.34375 C 125.628906 171.148438 128.234375 172.390625 129.734375 170.558594 C 131.085938 173 130.132812 177.425781 128.097656 178.175781 C 127.882812 179.714844 127.667969 181.246094 127.460938 182.78125 C 122.316406 178.921875 117.121094 174.992188 112.746094 169.335938 C 107.882812 163.097656 104.867188 155.441406 104.085938 147.351562 C 103.519531 140.847656 104.359375 133.410156 101.578125 128.40625 C 99.355469 124.402344 95.535156 123.519531 92.097656 123.769531 C 91.472656 123.8125 90.839844 123.890625 90.214844 123.972656 C 92.242188 117.4375 94.8125 111.113281 97.902344 105.074219 C 98.601562 104.75 99.253906 104.316406 99.832031 103.785156 C 103.027344 100.871094 104.449219 94.972656 107.042969 90.890625 C 107.210938 90.628906 107.382812 90.371094 107.5625 90.121094 C 110.21875 86.398438 113.773438 84.484375 117.210938 82.703125 C 124.816406 78.738281 132.644531 74.71875 140.675781 75.273438 L 138.390625 75.507812 C 135.722656 83.53125 133.054688 91.550781 130.382812 99.570312 C 129.976562 100.800781 129.566406 102.03125 129.15625 103.265625 C 127.640625 107.828125 126.074219 112.683594 126.308594 117.789062 C 126.445312 120.8125 127.425781 124.042969 129.285156 125.082031 C 131.023438 126.042969 132.917969 124.863281 134.59375 123.699219 C 135.304688 123.210938 136.007812 122.722656 136.71875 122.230469 C 139.265625 120.46875 142.089844 118.660156 144.78125 119.839844 C 147.242188 120.917969 149.0625 124.511719 149.410156 128.386719 C 149.726562 132.15625 148.871094 135.929688 146.976562 139.117188 Z M 146.976562 139.117188 "/>
<path style=" stroke:none;fill-rule:nonzero;fill:rgb(100%,100%,100%);fill-opacity:1;" d="M 162.125 193.878906 C 154.6875 188.957031 147.246094 184.039062 139.804688 179.121094 L 139.933594 178.769531 C 135.304688 180.664062 133.386719 189.492188 134.148438 196.714844 C 134.914062 203.933594 137.507812 210.390625 138.816406 217.425781 C 140.582031 227.054688 139.914062 237.015625 136.886719 246.273438 C 146.667969 234.484375 155.328125 221.671875 162.730469 208.03125 C 163.765625 206.3125 164.554688 204.433594 165.070312 202.464844 C 165.542969 200.367188 165.46875 197.847656 164.523438 196.164062 C 163.914062 195.199219 163.089844 194.414062 162.125 193.878906 Z M 162.125 193.878906 "/>
<path style=" stroke:none;fill-rule:nonzero;fill:rgb(100%,100%,100%);fill-opacity:1;" d="M 132.761719 104.382812 C 131.972656 106.289062 131.667969 108.835938 132.386719 110.808594 C 133.117188 112.824219 134.664062 113.734375 136.089844 114.492188 L 140.203125 116.679688 C 141.570312 117.410156 143.042969 118.144531 144.4375 117.546875 C 146.117188 116.824219 147.285156 113.992188 146.984375 111.363281 C 146.664062 108.566406 145.019531 106.644531 143.503906 105.003906 C 141.378906 102.710938 139.253906 100.421875 137.128906 98.128906 L 135.929688 99.703125 C 134.636719 101.058594 133.5625 102.640625 132.761719 104.382812 Z M 132.761719 104.382812 "/>
<path style=" stroke:none;fill-rule:nonzero;fill:rgb(100%,100%,100%);fill-opacity:1;" d="M 277.476562 134.28125 C 279.328125 134.75 281.175781 135.214844 283.023438 135.683594 C 282.703125 142.390625 279.605469 148.597656 275.453125 150.847656 C 273.722656 151.78125 271.796875 152.128906 270.367188 153.878906 C 269.070312 155.464844 268.414062 157.9375 267.8125 160.304688 C 266.753906 164.429688 265.699219 168.554688 264.644531 172.679688 C 263.511719 177.125 262.054688 182.066406 259.105469 183.667969 C 256.578125 185.042969 253.683594 183.359375 251.738281 180.535156 C 249.792969 177.710938 248.605469 173.910156 247.457031 170.207031 C 247.527344 174.242188 245.777344 178.203125 243.304688 179.605469 C 240.820312 181.007812 237.800781 179.738281 236.144531 176.609375 C 234.949219 174.359375 234.457031 171.394531 233.285156 169.113281 C 232.117188 166.832031 229.664062 165.523438 228.386719 167.664062 C 227.546875 169.085938 227.652344 171.265625 227.238281 173.070312 C 226.585938 175.878906 224.617188 177.640625 222.667969 177.792969 C 220.722656 177.945312 218.824219 176.742188 217.195312 175.109375 C 213.835938 171.726562 211.359375 166.355469 210.398438 160.394531 C 209.976562 157.734375 209.855469 154.839844 210.589844 152.347656 C 211.324219 149.855469 213.097656 147.933594 214.855469 148.40625 C 216.015625 145.78125 213.730469 142.296875 211.671875 142.601562 C 209.605469 142.910156 207.988281 145.285156 206.296875 147.113281 C 204.605469 148.9375 202.246094 150.265625 200.542969 148.453125 C 200.554688 150.136719 199.28125 151.25 198.175781 151.109375 C 197.078125 150.976562 196.101562 150.027344 195.089844 149.355469 C 191.195312 146.746094 186.25 148.476562 183.480469 153.410156 C 185.210938 145.503906 187.746094 136.433594 193.0625 134.574219 C 195.234375 133.8125 197.601562 134.441406 199.65625 133.121094 C 203.289062 130.78125 204.023438 121.949219 200.882812 118.304688 C 201.285156 121.75 201.207031 125.773438 199.511719 128.128906 C 197.816406 130.488281 194.261719 128.949219 194.476562 125.464844 C 193.988281 127.867188 191.554688 128.234375 190.433594 126.386719 C 189.304688 124.542969 189.398438 121.527344 190.199219 119.320312 C 191 117.117188 192.359375 115.535156 193.675781 114.015625 C 196.511719 110.757812 199.386719 107.457031 202.667969 105.40625 C 205.957031 103.355469 209.75 102.664062 213.042969 104.703125 C 214.78125 105.777344 216.308594 107.574219 218.078125 108.519531 C 219.851562 109.476562 222.101562 109.351562 223.273438 107.125 C 224.59375 104.636719 223.972656 100.949219 224.460938 97.839844 C 225.339844 92.351562 230.453125 89.78125 233.285156 93.40625 C 231.167969 92.824219 228.980469 95.515625 228.714844 98.777344 C 228.449219 102.039062 229.980469 105.332031 232.035156 106.316406 C 235.480469 107.957031 238.859375 103.832031 241.464844 100.011719 C 244.1875 96.015625 246.910156 92.019531 249.640625 88.027344 C 250.074219 87.347656 250.5625 86.707031 251.101562 86.117188 C 252.875 84.261719 255.683594 84.199219 257.527344 85.976562 C 260.28125 88.390625 261.578125 93.34375 263.839844 96.753906 C 267.121094 101.703125 272.03125 102.910156 276.601562 103.871094 C 280.007812 104.582031 283.414062 105.296875 286.824219 106.015625 C 289.097656 110.558594 291.082031 115.261719 292.761719 120.089844 C 286.988281 122.722656 281.660156 127.648438 277.476562 134.28125 Z M 277.476562 134.28125 "/>
<path style=" stroke:none;fill-rule:nonzero;fill:rgb(100%,100%,100%);fill-opacity:1;" d="M 288.488281 211.363281 C 285.933594 216.933594 282.960938 222.277344 279.601562 227.332031 C 277.453125 226.347656 275.144531 228.109375 273.132812 229.761719 C 271.035156 231.492188 268.511719 233.175781 266.355469 231.601562 C 264.15625 229.984375 263.445312 225.46875 264.144531 221.886719 C 264.839844 218.3125 266.582031 215.46875 268.269531 212.765625 C 270.0625 209.894531 271.976562 206.914062 274.464844 205.800781 C 276.957031 204.6875 280.160156 206.261719 280.890625 210.066406 L 282.65625 210.003906 C 281.664062 208.542969 282.183594 205.519531 283.515625 204.988281 C 285.046875 204.367188 286.378906 206.628906 287.285156 208.625 C 287.691406 209.53125 288.101562 210.441406 288.488281 211.363281 Z M 288.488281 211.363281 "/>
<path style=" stroke:none;fill-rule:nonzero;fill:rgb(100%,100%,100%);fill-opacity:1;" d="M 220.855469 184.300781 C 217.058594 184.558594 214.054688 179.539062 212.054688 174.605469 C 210.058594 169.667969 208.234375 164.023438 204.808594 161.511719 C 202.851562 160.074219 200.621094 159.878906 198.5 159.183594 C 196.375 158.488281 194.152344 157.046875 193.140625 154.117188 L 190.730469 153.070312 C 187.550781 154.992188 184.328125 156.945312 181.589844 160.070312 C 178.515625 163.574219 176.601562 168.070312 176.140625 172.859375 C 175.683594 178.035156 177.378906 183.804688 180.554688 185.75 C 183.0625 187.285156 185.980469 186.316406 188.519531 187.722656 C 191.695312 189.480469 193.578125 194.582031 194.292969 199.625 C 195.003906 204.664062 194.824219 209.898438 195.335938 214.996094 C 195.84375 220.09375 197.25 225.398438 200.164062 228.007812 C 203.804688 231.277344 209.148438 228.5625 210.78125 222.613281 C 211.585938 219.691406 211.554688 216.398438 212.15625 213.371094 C 213.210938 208.035156 216.0625 204.078125 218.320312 199.699219 C 220.578125 195.324219 222.359375 189.378906 220.855469 184.300781 Z M 220.855469 184.300781 "/>
<path style=" stroke:none;fill-rule:nonzero;fill:rgb(100%,100%,100%);fill-opacity:1;" d="M 183.347656 131.878906 C 183.699219 132.226562 184.03125 132.605469 184.335938 133.003906 C 184.976562 134.191406 184.953125 135.664062 184.273438 136.828125 C 185.199219 136.769531 186.058594 136.300781 186.648438 135.53125 C 187.339844 134.6875 187.949219 133.765625 188.464844 132.78125 C 188.851562 132.105469 189.265625 131.1875 189 130.382812 C 188.820312 129.832031 188.398438 129.597656 188.101562 129.183594 C 187.628906 128.53125 187.511719 127.488281 187.269531 126.589844 C 186.742188 124.648438 185.480469 123.222656 184.109375 123.015625 L 184.300781 123.054688 C 183.730469 123.265625 183.328125 124.242188 183.457031 125.121094 C 183.570312 125.917969 184.050781 126.582031 184.003906 127.398438 C 183.933594 128.570312 182.84375 129.121094 182.773438 130.292969 C 182.765625 130.882812 182.96875 131.449219 183.347656 131.878906 Z M 183.347656 131.878906 "/>
<path style=" stroke:none;fill-rule:nonzero;fill:rgb(90.196078%,90.196078%,90.196078%);fill-opacity:1;" d="M 176.84375 111.953125 C 176.847656 111.953125 176.855469 111.953125 176.859375 111.949219 C 176.976562 111.835938 177.085938 111.710938 177.183594 111.578125 Z M 176.84375 111.953125 "/>
<path style=" stroke:none;fill-rule:nonzero;fill:rgb(100%,100%,100%);fill-opacity:1;" d="M 177.980469 117.457031 C 178.820312 116.878906 179.289062 115.273438 179.011719 113.933594 C 178.738281 112.601562 177.761719 111.703125 176.859375 111.949219 C 176.328125 112.527344 175.558594 112.773438 174.820312 112.59375 C 174.265625 112.441406 173.652344 112.046875 173.171875 112.496094 C 172.894531 112.832031 172.703125 113.238281 172.609375 113.671875 C 172.429688 114.261719 172.25 114.851562 172.074219 115.441406 C 171.988281 115.652344 171.964844 115.886719 172.007812 116.109375 C 172.078125 116.292969 172.234375 116.425781 172.414062 116.457031 C 173.488281 116.796875 174.558594 117.132812 175.628906 117.472656 C 176.410156 117.722656 177.253906 117.960938 177.980469 117.457031 Z M 177.980469 117.457031 "/>
<path style=" stroke:none;fill-rule:nonzero;fill:rgb(100%,100%,100%);fill-opacity:1;" d="M 258.90625 193.4375 C 258.410156 192.566406 257.914062 191.695312 257.421875 190.824219 C 256.933594 189.8125 256.269531 188.917969 255.460938 188.179688 C 255.101562 187.859375 254.640625 187.707031 254.171875 187.753906 C 253.707031 187.804688 253.28125 188.054688 252.992188 188.449219 L 253.050781 188.945312 C 254.179688 190.464844 255.375 192.15625 255.660156 194.414062 C 255.773438 195.304688 255.734375 196.226562 255.835938 197.121094 C 255.933594 198.015625 256.214844 198.941406 256.753906 199.328125 C 257.53125 199.886719 258.449219 199.0625 259.003906 198.054688 C 259.5 197.226562 259.722656 196.246094 259.636719 195.265625 C 259.511719 194.609375 259.265625 193.984375 258.90625 193.4375 Z M 258.90625 193.4375 "/>
<path style=" stroke:none;fill-rule:nonzero;fill:rgb(90.196078%,90.196078%,90.196078%);fill-opacity:1;" d="M 280.960938 160.167969 C 281.101562 159.15625 281.246094 158.148438 281.390625 157.140625 C 281.621094 156.03125 281.652344 154.882812 281.476562 153.765625 C 281.394531 153.269531 281.132812 152.832031 280.746094 152.546875 C 280.359375 152.265625 279.882812 152.160156 279.425781 152.257812 L 279.171875 152.679688 C 279.125 154.625 279.023438 156.746094 277.890625 158.671875 C 277.441406 159.429688 276.859375 160.109375 276.398438 160.859375 C 275.9375 161.613281 275.597656 162.519531 275.777344 163.183594 C 276.039062 164.152344 277.234375 164.152344 278.265625 163.769531 C 279.140625 163.476562 279.898438 162.878906 280.421875 162.070312 C 280.71875 161.484375 280.902344 160.835938 280.960938 160.167969 Z M 280.960938 160.167969 "/>
<path style=" stroke:none;fill-rule:nonzero;fill:rgb(100%,100%,100%);fill-opacity:1;" d="M 266.679688 194.570312 C 266.921875 193.820312 266.574219 192.964844 266.5 192.136719 C 266.464844 191.070312 266.726562 190.015625 267.253906 189.109375 C 267.78125 188.257812 268.179688 187.320312 268.433594 186.335938 C 268.542969 185.886719 268.523438 185.414062 268.378906 184.976562 C 268.214844 184.582031 267.816406 184.398438 267.589844 184.714844 L 268.078125 185.050781 C 267.417969 184.925781 266.742188 184.960938 266.097656 185.152344 C 265.351562 185.460938 264.792969 186.136719 264.597656 186.96875 C 264.515625 187.609375 264.386719 188.238281 264.203125 188.851562 C 263.914062 189.496094 263.351562 189.707031 262.996094 190.273438 C 262.507812 191.285156 262.523438 192.5 263.046875 193.496094 C 263.492188 194.296875 264.195312 194.894531 265.027344 195.167969 C 265.625 195.398438 266.40625 195.410156 266.679688 194.570312 Z M 266.679688 194.570312 "/>
<path style=" stroke:none;fill-rule:nonzero;fill:rgb(100%,100%,100%);fill-opacity:1;" d="M 280.523438 199.054688 C 280.738281 199.65625 281.027344 200.222656 281.378906 200.746094 C 282.042969 201.460938 282.945312 201.019531 283.746094 200.847656 C 285.234375 200.59375 286.730469 201.238281 287.640625 202.523438 C 287.007812 199.136719 284.882812 196.289062 281.941406 194.886719 C 280.046875 194.058594 278.050781 193.976562 276.078125 193.902344 L 275.738281 193.996094 C 276.605469 196.707031 279.332031 196.648438 280.523438 199.054688 Z M 280.523438 199.054688 "/>
<path style=" stroke:none;fill-rule:nonzero;fill:rgb(90.196078%,90.196078%,90.196078%);fill-opacity:1;" d="M 221.894531 204.601562 L 221.898438 204.613281 C 221.933594 204.542969 221.964844 204.476562 221.996094 204.40625 Z M 221.894531 204.601562 "/>
<path style=" stroke:none;fill-rule:nonzero;fill:rgb(100%,100%,100%);fill-opacity:1;" d="M 219.792969 208.964844 C 219.335938 209.859375 218.941406 210.789062 218.617188 211.746094 C 218.183594 213.292969 217.898438 214.886719 217.761719 216.5 C 217.65625 217.414062 217.621094 218.585938 218.15625 219.03125 C 218.472656 219.257812 218.898438 219.199219 219.148438 218.886719 C 219.445312 218.550781 219.6875 218.164062 219.867188 217.742188 C 220.917969 215.796875 221.734375 213.71875 222.296875 211.550781 C 222.808594 209.273438 222.804688 206.585938 221.898438 204.613281 C 221.195312 206.0625 220.496094 207.515625 219.792969 208.964844 Z M 219.792969 208.964844 "/>
<path style=" stroke:none;fill-rule:nonzero;fill:rgb(90.196078%,90.196078%,90.196078%);fill-opacity:1;" d="M 199.535156 92.679688 C 200.214844 93.394531 201.230469 93.609375 202.113281 93.21875 C 203.003906 92.800781 203.824219 92.21875 204.535156 91.5 C 205.125 91.03125 205.625 90.449219 206.003906 89.777344 C 206.429688 88.96875 206.539062 88.011719 206.304688 87.117188 C 205.972656 86.078125 205.132812 85.726562 204.386719 85.488281 C 203.199219 85.109375 202.007812 84.730469 200.820312 84.351562 L 201.679688 83.519531 C 200.792969 83.011719 199.816406 83.957031 199.261719 85.128906 C 198.90625 85.894531 198.660156 86.714844 198.527344 87.558594 C 198.230469 89.398438 198.519531 91.589844 199.535156 92.679688 Z M 199.535156 92.679688 "/>
<path style=" stroke:none;fill-rule:nonzero;fill:rgb(90.196078%,90.196078%,90.196078%);fill-opacity:1;" d="M 220.542969 85.105469 C 221.238281 85.929688 222.410156 86.035156 223.21875 85.339844 C 223.898438 84.792969 224.332031 83.960938 224.40625 83.050781 C 224.488281 82.042969 224.027344 80.929688 223.367188 80.839844 L 223.515625 79.898438 C 222.242188 79.652344 220.675781 79.605469 219.996094 81.265625 C 219.527344 82.558594 219.734375 84.023438 220.542969 85.105469 Z M 220.542969 85.105469 "/>
<path style=" stroke:none;fill-rule:nonzero;fill:rgb(42.352941%,38.823529%,100%);fill-opacity:1;" d="M 217.734375 35.070312 C 202.191406 33.1875 188.171875 45.191406 186.417969 61.882812 C 184.664062 78.570312 192.851562 114.8125 207.78125 129.816406 C 214.8125 101.074219 239.445312 84.023438 242.703125 68.699219 C 246.1875 52.324219 233.277344 36.953125 217.734375 35.070312 Z M 217.734375 35.070312 "/>
<path style=" stroke:none;fill-rule:nonzero;fill:rgb(100%,100%,100%);fill-opacity:1;" d="M 221.808594 62.257812 C 221.808594 67.734375 217.675781 72.175781 212.574219 72.175781 C 207.472656 72.175781 203.335938 67.734375 203.335938 62.257812 C 203.335938 56.777344 207.472656 52.335938 212.574219 52.335938 C 217.675781 52.335938 221.808594 56.777344 221.808594 62.257812 Z M 221.808594 62.257812 "/>
<path style=" stroke:none;fill-rule:nonzero;fill:rgb(42.352941%,38.823529%,100%);fill-opacity:1;" d="M 208.910156 137.621094 C 208.910156 141.210938 206.203125 144.117188 202.859375 144.117188 C 199.519531 144.117188 196.8125 141.210938 196.8125 137.621094 C 196.8125 134.035156 199.519531 131.125 202.859375 131.125 C 206.203125 131.125 208.910156 134.035156 208.910156 137.621094 Z M 208.910156 137.621094 "/>
<use xlink:href="#surface5" mask="url(#mask0)"/>
<use xlink:href="#surface8" mask="url(#mask1)"/>
<path style=" stroke:none;fill-rule:nonzero;fill:rgb(42.352941%,38.823529%,100%);fill-opacity:1;" d="M 131.179688 73.769531 C 119.507812 72.355469 108.976562 81.371094 107.660156 93.902344 C 106.34375 106.4375 112.492188 133.65625 123.703125 144.921875 C 128.984375 123.335938 147.480469 110.53125 149.929688 99.023438 C 152.546875 86.726562 142.851562 75.183594 131.179688 73.769531 Z M 131.179688 73.769531 "/>
<path style=" stroke:none;fill-rule:nonzero;fill:rgb(100%,100%,100%);fill-opacity:1;" d="M 134.238281 94.183594 C 134.238281 98.296875 131.132812 101.632812 127.300781 101.632812 C 123.472656 101.632812 120.367188 98.296875 120.367188 94.183594 C 120.367188 90.070312 123.472656 86.738281 127.300781 86.738281 C 131.132812 86.738281 134.238281 90.070312 134.238281 94.183594 Z M 134.238281 94.183594 "/>
<path style=" stroke:none;fill-rule:nonzero;fill:rgb(42.352941%,38.823529%,100%);fill-opacity:1;" d="M 124.550781 150.78125 C 124.550781 153.476562 122.519531 155.660156 120.007812 155.660156 C 117.5 155.660156 115.464844 153.476562 115.464844 150.78125 C 115.464844 148.089844 117.5 145.902344 120.007812 145.902344 C 122.519531 145.902344 124.550781 148.089844 124.550781 150.78125 Z M 124.550781 150.78125 "/>
<use xlink:href="#surface11" mask="url(#mask2)"/>
<use xlink:href="#surface14" mask="url(#mask3)"/>
<path style=" stroke:none;fill-rule:nonzero;fill:rgb(62.745098%,38.039216%,41.568627%);fill-opacity:1;" d="M 348.339844 343.585938 L 340.726562 343.585938 L 337.101562 312.042969 L 348.34375 312.042969 Z M 348.339844 343.585938 "/>
<path style=" stroke:none;fill-rule:nonzero;fill:rgb(18.431373%,18.039216%,25.490196%);fill-opacity:1;" d="M 352.4375 359.113281 L 347.035156 359.113281 L 346.070312 353.636719 L 343.597656 359.113281 L 329.265625 359.113281 C 327.855469 359.113281 326.609375 358.128906 326.191406 356.683594 C 325.769531 355.238281 326.273438 353.667969 327.433594 352.808594 L 338.882812 344.320312 L 338.882812 338.78125 L 350.921875 339.550781 Z M 352.4375 359.113281 "/>
<path style=" stroke:none;fill-rule:nonzero;fill:rgb(62.745098%,38.039216%,41.568627%);fill-opacity:1;" d="M 318.84375 343.585938 L 311.226562 343.585938 L 307.605469 312.042969 L 318.84375 312.042969 Z M 318.84375 343.585938 "/>
<path style=" stroke:none;fill-rule:nonzero;fill:rgb(18.431373%,18.039216%,25.490196%);fill-opacity:1;" d="M 322.941406 359.113281 L 317.535156 359.113281 L 316.570312 353.636719 L 314.101562 359.113281 L 299.769531 359.113281 C 298.359375 359.113281 297.113281 358.128906 296.691406 356.683594 C 296.273438 355.238281 296.777344 353.667969 297.9375 352.808594 L 309.382812 344.320312 L 309.382812 338.78125 L 321.421875 339.550781 Z M 322.941406 359.113281 "/>
<path style=" stroke:none;fill-rule:nonzero;fill:rgb(18.431373%,18.039216%,25.490196%);fill-opacity:1;" d="M 289.910156 260.304688 C 291.367188 262.652344 307.222656 327.183594 307.222656 327.183594 L 321.28125 328.90625 L 319.613281 312.667969 L 317.0625 283.9375 L 313.113281 264.757812 C 313.113281 264.757812 327.058594 230.671875 327.941406 227.957031 L 328.566406 226.007812 L 332.925781 268.472656 C 333.441406 269.988281 333.667969 271.601562 333.589844 273.214844 C 333.457031 275.867188 335.933594 315.773438 335.933594 315.773438 L 337.125 330.085938 L 349.171875 331.882812 L 354.058594 307.121094 C 358.140625 299.078125 355.800781 270.492188 354.132812 267.832031 C 352.460938 265.171875 353.125 246.640625 353.125 246.640625 C 355.257812 245.835938 367.964844 199.308594 361.609375 199.582031 C 362.015625 197.101562 362.335938 194.886719 362.335938 194.886719 L 351.304688 185.332031 L 323.691406 177.625 L 316.726562 174.035156 C 316.726562 174.035156 304.285156 198.738281 304.410156 199.964844 C 304.582031 201.523438 304.25 203.09375 303.46875 204.417969 L 290.90625 249.5625 C 290.90625 249.5625 288.4375 257.933594 289.910156 260.304688 Z M 289.910156 260.304688 "/>
<path style=" stroke:none;fill-rule:nonzero;fill:rgb(80%,80%,80%);fill-opacity:1;" d="M 359.277344 98.769531 L 354.882812 88.753906 L 339.933594 89.371094 L 335.058594 99.792969 C 335.058594 99.792969 321.121094 117.664062 320.671875 123.476562 C 320.105469 130.785156 324.820312 166.609375 320.105469 164.289062 C 320.105469 164.289062 308.988281 178.300781 315.566406 178.300781 C 322.144531 178.300781 351.894531 198.355469 353.847656 200.609375 C 355.800781 202.863281 364.515625 204.328125 363.785156 199.617188 C 363.054688 194.910156 359.277344 169.445312 359.277344 169.445312 L 369.5 129.40625 C 372.441406 120.761719 373.355469 111.0625 366.707031 105.257812 Z M 359.277344 98.769531 "/>
<path style=" stroke:none;fill-rule:nonzero;fill:rgb(42.352941%,38.823529%,100%);fill-opacity:1;" d="M 303.902344 69.296875 C 295.492188 65.710938 285.96875 70.125 282.628906 79.15625 C 279.289062 88.1875 278.738281 109.75 284.949219 120.558594 C 292.9375 105.660156 309.097656 100.160156 313.082031 92.136719 C 317.34375 83.566406 312.308594 72.878906 303.902344 69.296875 Z M 303.902344 69.296875 "/>
<path style=" stroke:none;fill-rule:nonzero;fill:rgb(100%,100%,100%);fill-opacity:1;" d="M 302.519531 83.628906 C 302.519531 86.796875 300.125 89.367188 297.175781 89.367188 C 294.226562 89.367188 291.832031 86.796875 291.832031 83.628906 C 291.832031 80.460938 294.226562 77.890625 297.175781 77.890625 C 300.125 77.890625 302.519531 80.460938 302.519531 83.628906 Z M 302.519531 83.628906 "/>
<path style=" stroke:none;fill-rule:nonzero;fill:rgb(42.352941%,38.823529%,100%);fill-opacity:1;" d="M 284.597656 124.113281 C 284.597656 126.191406 283.03125 127.871094 281.097656 127.871094 C 279.167969 127.871094 277.601562 126.191406 277.601562 124.113281 C 277.601562 122.039062 279.167969 120.355469 281.097656 120.355469 C 283.03125 120.355469 284.597656 122.039062 284.597656 124.113281 Z M 284.597656 124.113281 "/>
<use xlink:href="#surface17" mask="url(#mask4)"/>
<use xlink:href="#surface20" mask="url(#mask5)"/>
<path style=" stroke:none;fill-rule:nonzero;fill:rgb(62.745098%,38.039216%,41.568627%);fill-opacity:1;" d="M 279.523438 122.820312 C 281.167969 122.457031 282.882812 122.894531 284.199219 124.015625 C 285.515625 125.136719 286.304688 126.828125 286.347656 128.632812 L 298.46875 133.628906 L 297.441406 142.28125 L 280.414062 134.964844 C 277.523438 134.84375 275.171875 132.417969 274.945312 129.316406 C 274.714844 126.21875 276.683594 123.429688 279.523438 122.820312 Z M 279.523438 122.820312 "/>
<path style=" stroke:none;fill-rule:nonzero;fill:rgb(80%,80%,80%);fill-opacity:1;" d="M 364.21875 104.992188 C 361.640625 103.304688 358.542969 102.785156 355.609375 103.554688 C 352.675781 104.320312 350.148438 106.3125 348.582031 109.085938 L 331.183594 139.9375 L 291.84375 129.925781 L 288.261719 140.492188 L 338.636719 166.117188 L 364.152344 122.476562 C 367.972656 116.714844 369.84375 108.679688 364.21875 104.992188 Z M 364.21875 104.992188 "/>
<path style=" stroke:none;fill-rule:nonzero;fill:rgb(18.431373%,18.039216%,25.490196%);fill-opacity:1;" d="M 364.867188 67.183594 C 364.871094 75.363281 359.78125 82.539062 352.433594 84.707031 C 345.085938 86.875 337.296875 83.5 333.40625 76.46875 C 329.515625 69.433594 330.484375 60.472656 335.769531 54.582031 L 335.851562 54.496094 C 335.988281 54.34375 336.121094 54.191406 336.265625 54.046875 C 336.265625 54.046875 336.269531 54.046875 336.269531 54.042969 C 336.269531 54.042969 336.269531 54.039062 336.269531 54.039062 C 336.445312 53.863281 336.625 53.691406 336.804688 53.523438 C 341.800781 48.820312 348.890625 47.695312 354.9375 50.636719 C 360.988281 53.582031 364.871094 60.054688 364.867188 67.183594 Z M 364.867188 67.183594 "/>
<path style=" stroke:none;fill-rule:nonzero;fill:rgb(61.960784%,38.039216%,41.568627%);fill-opacity:1;" d="M 357.96875 71.386719 C 357.96875 79.800781 351.617188 86.621094 343.785156 86.621094 C 335.949219 86.621094 329.597656 79.800781 329.597656 71.386719 C 329.597656 62.972656 335.949219 56.152344 343.785156 56.152344 C 351.617188 56.152344 357.96875 62.972656 357.96875 71.386719 Z M 357.96875 71.386719 "/>
<path style=" stroke:none;fill-rule:nonzero;fill:rgb(18.431373%,18.039216%,25.490196%);fill-opacity:1;" d="M 358.847656 75.730469 L 356.496094 75.285156 C 353.808594 74.761719 351.703125 72.5 351.21875 69.609375 L 348.925781 73.738281 L 348.824219 73.773438 C 343.359375 75.722656 337.675781 75.136719 331.449219 71.992188 C 329.667969 71.085938 327.941406 70.0625 326.273438 68.929688 L 326.152344 68.847656 L 326.140625 68.695312 C 325.824219 63.738281 326.859375 59.597656 329.058594 57.035156 C 330.765625 55.085938 333.167969 54.011719 335.660156 54.082031 C 335.746094 54.058594 335.828125 54.011719 335.894531 53.945312 C 335.925781 53.917969 335.957031 53.894531 335.988281 53.871094 L 335.988281 53.84375 L 336.148438 53.761719 C 336.5 53.585938 336.855469 53.417969 337.214844 53.261719 C 342.941406 50.882812 349.433594 52.230469 353.917969 56.738281 C 358.289062 61.21875 360.292969 68.734375 358.90625 75.445312 Z M 358.847656 75.730469 "/>
<path style=" stroke:none;fill-rule:nonzero;fill:rgb(18.431373%,18.039216%,25.490196%);fill-opacity:1;" d="M 388.769531 88.710938 C 383.941406 86.035156 390.152344 76.324219 388.902344 70.644531 C 387.65625 64.96875 378.671875 63.140625 378.097656 57.339844 C 377.527344 51.539062 376.179688 45.554688 372.613281 41.15625 C 370.335938 38.339844 366.980469 36.265625 363.523438 36.617188 C 361.160156 36.859375 359.007812 38.195312 357.632812 40.273438 C 356.257812 42.355469 355.792969 44.976562 356.359375 47.457031 C 355.378906 45.957031 352.832031 46.28125 352.199219 47.984375 C 351.640625 49.5 352.878906 51.332031 354.335938 51.46875 C 356.242188 53.996094 358.425781 56.675781 361.410156 57.1875 C 362.375 57.425781 363.386719 57.175781 364.15625 56.507812 C 364.859375 55.78125 364.914062 54.332031 364.082031 53.792969 C 367.832031 55.394531 370.035156 59.75 370.589844 64.046875 C 371.148438 68.339844 370.378906 72.6875 369.871094 76.988281 C 369.363281 81.289062 369.144531 85.816406 370.714844 89.8125 C 372.570312 94.53125 376.84375 97.914062 381.507812 99 C 386.167969 100.085938 391.136719 99.023438 395.355469 96.636719 C 399.578125 94.246094 403.097656 90.597656 405.972656 86.511719 C 401.019531 90.285156 394.167969 91.703125 388.769531 88.710938 Z M 388.769531 88.710938 "/>
<path style=" stroke:none;fill-rule:nonzero;fill:rgb(99.215686%,39.607843%,51.764706%);fill-opacity:1;" d="M 358.242188 75.308594 C 358.242188 75.308594 354.042969 58.464844 336.027344 54.574219 C 336.007812 54.570312 335.941406 54.539062 335.851562 54.496094 C 335.796875 54.460938 335.730469 54.421875 335.664062 54.386719 C 335.867188 54.265625 336.0625 54.15625 336.265625 54.046875 C 336.265625 54.046875 336.269531 54.046875 336.269531 54.042969 C 336.269531 54.042969 336.269531 54.039062 336.269531 54.039062 C 336.445312 53.863281 336.625 53.691406 336.804688 53.523438 L 337.320312 53.542969 C 337.320312 53.542969 355.394531 50.46875 358.242188 75.308594 Z M 358.242188 75.308594 "/>
<use xlink:href="#surface23" mask="url(#mask6)"/>
<path style=" stroke:none;fill-rule:nonzero;fill:rgb(79.215686%,79.215686%,79.215686%);fill-opacity:1;" d="M 409.902344 360.066406 L 253.476562 360.253906 C 253.105469 360.253906 252.804688 359.929688 252.804688 359.53125 C 252.804688 359.128906 253.105469 358.804688 253.476562 358.804688 L 409.902344 358.617188 C 410.277344 358.617188 410.578125 358.941406 410.578125 359.34375 C 410.578125 359.742188 410.277344 360.066406 409.902344 360.066406 Z M 409.902344 360.066406 "/>
<path style=" stroke:none;fill-rule:nonzero;fill:rgb(42.352941%,38.823529%,100%);fill-opacity:1;" d="M 416.769531 247.351562 C 409.445312 247.351562 401.417969 247.054688 392.683594 246.460938 C 347.523438 243.382812 289.023438 232.675781 227.960938 216.3125 C 166.902344 199.953125 110.578125 179.890625 69.359375 159.828125 C 49.285156 150.050781 33.875 140.800781 23.5625 132.324219 C 12.644531 123.355469 7.867188 115.535156 9.367188 109.085938 C 12.289062 96.519531 38.144531 93.769531 59.324219 93.675781 L 59.332031 95.503906 C 30.246094 95.632812 13.089844 100.613281 11.019531 109.527344 C 8.378906 120.882812 29.902344 138.609375 70.0625 158.160156 C 111.1875 178.183594 167.410156 198.207031 228.375 214.542969 C 289.335938 230.875 347.730469 241.566406 392.792969 244.636719 C 436.800781 247.640625 463.554688 242.847656 466.195312 231.492188 C 468.386719 222.066406 453.941406 208.179688 425.527344 192.386719 L 426.308594 190.765625 C 446.957031 202.238281 470.921875 218.695312 467.847656 231.9375 C 466.347656 238.386719 458.710938 242.878906 445.148438 245.289062 C 437.414062 246.664062 427.917969 247.351562 416.769531 247.351562 Z M 416.769531 247.351562 "/>
</g>
</svg>
